<?xml version="1.0" encoding="utf-8"?>
<!-- Generator: Adobe Illustrator 22.1.0, SVG Export Plug-In . SVG Version: 6.00 Build 0)  -->
<svg version="1.1" xmlns="http://www.w3.org/2000/svg" xmlns:xlink="http://www.w3.org/1999/xlink" x="0px" y="0px"
	 viewBox="0 0 65.2 110.9" style="enable-background:new 0 0 65.2 110.9;" xml:space="preserve">
<style type="text/css">
	.st0{fill:#FFFFFF;}
	.st1{fill:#1A1A1A;}
	.st2{fill:#ED1C24;}
	.st3{fill:#F7F6F6;}
	.st4{fill:#1B1B1B;}
</style>
<g id="Layer_1">
</g>
<g id="Icons">
	<g>
		<path class="st0" d="M10.1,35c-2.6,0.2-5.3,0.2-7.9,0c-1.4-0.1-2.2-1-2.1-2.5c0.1-1.3,1-2.3,2.5-2.3c1.2,0,2.4,0,3.7,0
			c0,0,0,0,0,0c1.2,0,2.4,0,3.7,0c1.4,0.1,2.3,0.9,2.3,2.3C12.2,33.9,11.5,34.9,10.1,35z"/>
		<path class="st0" d="M9.8,13.3C8.5,12,8.5,10.6,9.6,9.5c1-1,2.5-0.9,3.8,0.4c1.6,1.6,3.2,3.2,4.8,4.8c0.8,0.8,1,1.8,0.4,2.9
			c-0.5,0.8-1.2,1.3-2.6,1.3c-0.4,0-1.1-0.5-1.6-1C12.9,16.4,11.3,14.9,9.8,13.3z"/>
		<path class="st0" d="M30.2,9.9c-0.1-2.5-0.1-5,0-7.5C30.3,1,31.3,0,32.6,0C34,0,34.9,1,35,2.6c0,0.1,0,0.2,0,0.3v3.1h0
			c0,1.3,0,2.5,0,3.8c-0.1,1.4-0.9,2.2-2.3,2.4C31.4,12.4,30.3,11.3,30.2,9.9z"/>
		<path class="st0" d="M54.8,56.5c0,1.8,0,3.7,0,5.5c0,2.6-0.8,3.3-3.4,3.3c-2,0-4,0.1-6,0c-1.4-0.1-1.8,0.3-1.8,1.7
			c0.1,8.5,0,16.9,0,25.4c0,0.6,0,1.1-0.1,1.7c-0.2,1.2-1,2-2.3,2c-1.3,0-2.1-0.6-2.4-1.8c-0.1-0.6-0.1-1.3-0.1-2
			c0-8.4,0-16.7,0-25.1c0-1.6-0.5-2-2-1.9c-2.9,0.1-5.9,0.1-8.8,0c-1.3,0-1.7,0.3-1.7,1.6c0.1,6.9,0,13.7,0,20.6
			c0,6.5,0,13.1,0,19.6c0,0.6,0,1.2-0.1,1.8c-0.2,1.3-1.1,1.9-2.3,2c-1.2,0-2-0.6-2.3-1.8c-0.2-0.7-0.2-1.4-0.2-2.1
			c0-13.3,0-26.6,0-39.8c0-1.4-0.3-2-1.8-1.9c-2.1,0.1-4.2,0.1-6.3,0c-2.1,0-3-1-3-3.1c0-2,0-4,0-6c0-2.3,0.9-3.3,3.2-3.2
			c1.6,0.1,1.8-0.5,1.8-1.9c-0.1-5.9-0.1-11.8,0-17.8c0-8.5,6.1-15.8,14.2-17.1c8.7-1.4,16.5,3.3,19.4,11.7c0.7,1.9,0.9,3.9,0.9,5.9
			c0,5.9,0,11.7,0,17.6c0,1.2,0.2,1.7,1.5,1.6C54.1,53,54.8,53.8,54.8,56.5z"/>
		<path class="st0" d="M47,18.2c-1-0.9-1.1-2.2-0.2-3.1c1.8-2,3.8-3.9,5.7-5.8C53,8.9,53.5,8.9,54,8.9c1,0,1.7,0.4,2.1,1.3
			c0.4,0.9,0.4,1.9-0.3,2.6c-1.8,1.9-3.6,3.7-5.5,5.5C49.3,19.3,48,19.2,47,18.2z"/>
		<path class="st0" d="M65.2,32.6c0,1.4-0.8,2.4-2.2,2.4c-2.6,0.1-5.3,0.1-7.9,0c-1.3-0.1-2.1-1.1-2.1-2.4c0-1.4,0.9-2.3,2.3-2.4
			c1.3-0.1,2.7,0,4,0v0c1.2,0,2.3,0,3.5,0C64.2,30.3,65.2,31.2,65.2,32.6z"/>
		<path class="st1" d="M54.8,62c0,2.6-0.8,3.3-3.4,3.3c-2,0-4,0.1-6,0c-1.4-0.1-1.8,0.3-1.8,1.7c0.1,8.5,0,16.9,0,25.4
			c0,0.6,0,1.1-0.1,1.7c-0.2,1.2-1,2-2.3,2c-1.3,0-2.1-0.6-2.4-1.8c-0.1-0.6-0.1-1.3-0.1-2c0-8.4,0-16.7,0-25.1c0-1.6-0.5-2-2-1.9
			c-2.9,0.1-5.9,0.1-8.8,0c-1.3,0-1.7,0.3-1.7,1.6c0.1,6.9,0,13.7,0,20.6c0,6.5,0,13.1,0,19.6c0,0.6,0,1.2-0.1,1.8
			c-0.2,1.3-1.1,1.9-2.3,2c-1.2,0-2-0.6-2.3-1.8c-0.2-0.7-0.2-1.4-0.2-2.1c0-13.3,0-26.6,0-39.8c0-1.4-0.3-2-1.8-1.9
			c-2.1,0.1-4.2,0.1-6.3,0c-2.1,0-3-1-3-3.1c0-2,0-4,0-6c0-2.3,0.9-3.3,3.2-3.2c1.6,0.1,1.8-0.5,1.8-1.9c-0.1-5.9-0.1-11.8,0-17.8
			c0-8.5,6.1-15.8,14.2-17.1c8.7-1.4,16.5,3.3,19.4,11.7c0.7,1.9,0.9,3.9,0.9,5.9c0,5.9,0,11.7,0,17.6c0,1.2,0.2,1.7,1.5,1.6
			c2.7,0,3.4,0.7,3.4,3.4C54.8,58.3,54.8,60.1,54.8,62z"/>
		<path class="st2" d="M65.2,32.6c0,1.4-0.8,2.4-2.2,2.4c-2.6,0.1-5.3,0.1-7.9,0c-1.3-0.1-2.1-1.1-2.1-2.4c0-1.4,0.9-2.3,2.3-2.4
			c1.3-0.1,2.7,0,4,0v0c1.2,0,2.3,0,3.5,0C64.2,30.3,65.2,31.2,65.2,32.6z"/>
		<path class="st2" d="M10.1,35c-2.6,0.2-5.3,0.2-7.9,0c-1.4-0.1-2.2-1-2.1-2.5c0.1-1.3,1-2.3,2.5-2.3c1.2,0,2.4,0,3.7,0
			c0,0,0,0,0,0c1.2,0,2.4,0,3.7,0c1.4,0.1,2.3,0.9,2.3,2.3C12.2,33.9,11.5,34.9,10.1,35z"/>
		<path class="st2" d="M55.8,12.8c-1.8,1.9-3.6,3.7-5.5,5.5c-1,1-2.3,0.9-3.3-0.1c-1-0.9-1.1-2.2-0.2-3.1c1.8-2,3.8-3.9,5.7-5.8
			C53,8.9,53.5,8.9,54,8.9c1,0,1.7,0.4,2.1,1.3C56.5,11.1,56.5,12.1,55.8,12.8z"/>
		<path class="st2" d="M18.6,17.7c-0.5,0.8-1.2,1.3-2.6,1.3c-0.4,0-1.1-0.5-1.6-1c-1.5-1.5-3.1-3-4.6-4.6C8.5,12,8.5,10.6,9.6,9.5
			c1-1,2.5-0.9,3.8,0.4c1.6,1.6,3.2,3.2,4.8,4.8C18.9,15.6,19.2,16.6,18.6,17.7z"/>
		<path class="st2" d="M35,9.9c-0.1,1.4-0.9,2.2-2.3,2.4c-1.3,0.1-2.4-0.9-2.5-2.3c-0.1-2.5-0.1-5,0-7.5C30.3,1,31.3,0,32.6,0
			C34,0,34.9,1,35,2.6c0,0.1,0,0.2,0,0.3v3.1h0C35,7.3,35.1,8.6,35,9.9z"/>
		<path class="st2" d="M32.6,53c-3.7,0-7.3,0-10.9,0c-1.1,0-1.4-0.3-1.4-1.4c0.1-6.1,0-12.3,0.1-18.4c0.1-6.9,5.6-12.3,12.4-12.3
			c6.6,0,12.2,5.5,12.2,12.3c0.1,6.1,0,12.3,0,18.4c0,1.1-0.3,1.4-1.4,1.4C39.9,53,36.3,53,32.6,53z"/>
		<path class="st3" d="M32.4,60.4c-5.1,0-10.3,0-15.4,0c-0.9,0-1.7,0.2-1.7-1.2c0-1.4,0.7-1.3,1.6-1.3c10.5,0,20.9,0,31.4,0
			c1,0,1.7,0,1.6,1.3c0,1.3-0.7,1.2-1.6,1.2C43.1,60.4,37.7,60.4,32.4,60.4z"/>
		<path class="st4" d="M35,26.1c-0.1,1.1-0.7,1.8-2,2.1c-4,0.8-4.7,1.5-5.4,5.3c-0.3,1.4-1.3,2.2-2.7,2.1c-1.3-0.1-2.2-1.2-2.2-2.7
			c0.1-5.1,4.4-9.3,9.4-9.5C33.9,23.4,35,24.4,35,26.1z"/>
	</g>
</g>
</svg>
