<?xml version="1.0" encoding="utf-8"?>
<!-- Generator: Adobe Illustrator 22.1.0, SVG Export Plug-In . SVG Version: 6.00 Build 0)  -->
<svg version="1.1" xmlns="http://www.w3.org/2000/svg" xmlns:xlink="http://www.w3.org/1999/xlink" x="0px" y="0px"
	 viewBox="0 0 557.3 238.1" style="enable-background:new 0 0 557.3 238.1;" xml:space="preserve">
<style type="text/css">
	.st0{stroke:#000000;stroke-miterlimit:10;}
	.st1{fill:#A7A9AC;stroke:#000000;stroke-miterlimit:10;}
	.st2{fill:url(#SVGID_1_);stroke:#000000;stroke-miterlimit:10;}
	.st3{fill:none;stroke:#000000;stroke-miterlimit:10;}
	.st4{fill:none;}
	.st5{font-family:'JosefinSans-Light';}
	.st6{font-size:12px;}
</style>
<g id="Layer_1">
</g>
<g id="Product">
	<path class="st0" d="M356,57.4v124.3c0,12.6-10.2,22.8-22.8,22.8H208.8c-12.6,0-22.8-10.2-22.8-22.8V57.4
		c0-12.6,10.2-22.8,22.8-22.8h124.3C345.8,34.5,356,44.8,356,57.4z"/>
	<circle class="st1" cx="320.2" cy="67.5" r="22.5"/>
	<circle class="st1" cx="221.8" cy="67.5" r="22.5"/>
	<circle class="st1" cx="320.2" cy="171.5" r="22.5"/>
	<circle class="st1" cx="221.8" cy="171.5" r="22.5"/>
	<radialGradient id="SVGID_1_" cx="271.0023" cy="119.5273" r="18" gradientUnits="userSpaceOnUse">
		<stop  offset="0" style="stop-color:#FFFFFF"/>
		<stop  offset="0" style="stop-color:#FBF3EF"/>
		<stop  offset="1" style="stop-color:#F16A7F"/>
	</radialGradient>
	<circle class="st2" cx="271" cy="119.5" r="18"/>
	<line class="st3" x1="330.5" y1="47.5" x2="363.3" y2="14.6"/>
	<line class="st3" x1="363.3" y1="14.6" x2="459" y2="14.6"/>
	<line class="st3" x1="211.5" y1="191.6" x2="178.7" y2="224.4"/>
	<line class="st3" x1="178.7" y1="224.4" x2="83" y2="224.4"/>
	<line class="st3" x1="335.3" y1="154.8" x2="424.1" y2="66"/>
	<line class="st3" x1="424.1" y1="66" x2="459" y2="66"/>
	<line class="st3" x1="206.7" y1="84.2" x2="117.9" y2="173.1"/>
	<line class="st3" x1="117.9" y1="173.1" x2="83" y2="173.1"/>
</g>
<g id="Text">
	<rect x="459" y="1.1" class="st4" width="98.3" height="29.7"/>
	<text transform="matrix(1 0 0 1 459.002 10.2598)"><tspan x="0" y="0" class="st5 st6">25 minutes work </tspan><tspan x="0" y="14.4" class="st5 st6">cycle button</tspan></text>
	<rect x="459" y="55.6" class="st4" width="98.3" height="29.7"/>
	<text transform="matrix(1 0 0 1 459.002 64.7661)"><tspan x="0" y="0" class="st5 st6">45 minutes work </tspan><tspan x="0" y="14.4" class="st5 st6">cycle button</tspan></text>
	<rect x="0" y="208.5" class="st4" width="98.3" height="29.7"/>
	<text transform="matrix(1 0 0 1 1.831055e-04 217.5893)"><tspan x="0" y="0" class="st5 st6">60 minutes work </tspan><tspan x="0" y="14.4" class="st5 st6">cycle button</tspan></text>
	<rect x="0" y="160.7" class="st4" width="98.3" height="29.7"/>
	<text transform="matrix(1 0 0 1 1.831055e-04 169.8619)"><tspan x="0" y="0" class="st5 st6">5 minutes work</tspan><tspan x="0" y="14.4" class="st5 st6">cycle button</tspan></text>
</g>
</svg>
