<?xml version="1.0" encoding="utf-8"?>
<!-- Generator: Adobe Illustrator 22.1.0, SVG Export Plug-In . SVG Version: 6.00 Build 0)  -->
<svg version="1.1" id="Layer_1" xmlns="http://www.w3.org/2000/svg" xmlns:xlink="http://www.w3.org/1999/xlink" x="0px" y="0px"
	 viewBox="0 0 557.3 238.1" style="enable-background:new 0 0 557.3 238.1;" xml:space="preserve">
<style type="text/css">
	.st0{fill:#B9B9B7;}
	.st1{fill:#B5B5B3;}
	.st2{fill:#B6B6B4;}
	.st3{fill:#A2A2A0;}
	.st4{fill:#ACACAB;}
	.st5{fill:#B2B2B1;}
	.st6{fill:#A6A6A5;}
	.st7{fill:#BBBBBA;}
	.st8{fill:#BFBFBE;}
	.st9{fill:#C4C4C2;}
	.st10{fill:#C2C2C0;}
	.st11{fill:#BDBDBC;}
	.st12{fill:#C5C5C3;}
	.st13{fill:#C8C8C6;}
	.st14{fill:#C9C9C7;}
	.st15{fill:#CACAC8;}
	.st16{fill:#CBCBC9;}
	.st17{fill:#CCCCCA;}
	.st18{fill:#D1D1CF;}
	.st19{fill:#CECECC;}
	.st20{fill:#CDCDCB;}
	.st21{fill:#D5D5D3;}
	.st22{fill:#D3D3D1;}
	.st23{fill:#D6D6D4;}
	.st24{fill:#D0D0CE;}
	.st25{fill:#D7D7D5;}
	.st26{fill:#D2D2D0;}
	.st27{fill:#D8D8D7;}
	.st28{fill:#CBCBCA;}
	.st29{fill:#343434;}
	.st30{fill:#292929;}
	.st31{fill:#303030;}
	.st32{fill:#D9D9D7;}
	.st33{fill:#CFCFCD;}
	.st34{fill:#DDDDDB;}
	.st35{fill:#CCCCCB;}
	.st36{fill:#C7C7C5;}
	.st37{fill:#C6C6C4;}
	.st38{fill:#C1C1BF;}
	.st39{fill:#373737;}
	.st40{fill:#A9A9A8;}
	.st41{fill:#141414;}
	.st42{fill:#1D1D1D;}
	.st43{fill:#464646;}
	.st44{fill:#DBDBD9;}
	.st45{fill:#C1C1C0;}
	.st46{fill:none;}
	.st47{font-family:'JosefinSans-Light';}
	.st48{font-size:12px;}
	.st49{fill:none;stroke:#000000;stroke-miterlimit:10;}
</style>
<g id="Layer_1_1_">
</g>
<g id="Product">
	<g>
		<path d="M354.5,43.8c-0.9-5.7-6.7-10.7-12.3-11.2c-4.1-0.3-8.2-0.1-12.3-0.1c-19.8,0-39.6-0.1-59.4-0.1c-20.9,0-41.8,0.1-62.7,0.1
			c-4,0-8-0.2-12.1,0.1c-0.6,0-1.2,0.1-1.8,0.5c-1.1,0.2-2.3,0.2-2.9,1.4l-1.4,0.7c-0.1,0-0.2,0-0.2,0.1c-1.8,0.8-3,2.2-4,3.8
			c-0.3,0.5-0.6,1-0.8,1.6c-1.5,1.8-1.7,4.1-1.7,6.2c-0.1,11.7-0.1,23.3-0.1,35c0,36,0,72,0,108.1c0,3.4,1.1,6.4,3.2,9
			c3.3,3.9,7.6,5.6,12.7,5.6c46.2,0,92.4,0,138.6,0c1.6,0,3.3,0,4.9-0.2c5-0.8,8.7-3.4,11-8c1.3-2.1,1.6-4.5,1.6-7
			c0-47.3,0-94.5,0-141.8C355,46.3,354.9,45,354.5,43.8z M324,57.7c-0.4-1.3-0.5-2.8,0.2-4.1c0.9,0.2,1.1-0.8,1.8-1
			c1.9-0.4,3.7-0.5,5.6,0c0.4,0.5,0.9,0.7,1.4,1.1c1.3,0.9,2.3,2.1,2.5,3.8c0.5,1.5,0.2,2.9-0.1,4.4C331.4,64.9,325.4,63,324,57.7z"
			/>
		<path class="st0" d="M353.4,196.3c-2.3,4.5-6,7.2-11,8c-1.6,0.2-3.3,0.2-4.9,0.2c-46.2,0-92.4,0-138.6,0c-5.1,0-9.4-1.7-12.7-5.6
			c-2.1-2.6-3.2-5.6-3.2-9c0-36,0-72,0-108.1c0-11.7,0-23.3,0.1-35c0-2.1,0.2-4.4,1.7-6.2c0.1,0,0.1,0.1,0.2,0.2
			c0,0,0.1,0.1,0.1,0.1c0,0,0,0,0,0.1c0.1,0.2,0.1,0.4,0,0.6c0,0.1-0.1,0.2-0.1,0.3c0,0,0,0,0,0c0,0.2-0.1,0.4-0.1,0.6
			c-0.2,0.3-0.3,0.5-0.4,0.8c-0.1,0.2-0.1,0.4-0.2,0.6c-0.3,0.7-0.1,1.4-0.2,2.2c0,0.2-0.1,0.3-0.1,0.5c-0.2,0.7-0.1,1.4-0.1,2.1
			v139.4c0,0.6,0,1.3,0.1,1.9c0.1,0.2,0.1,0.3,0.1,0.5c0,0.1,0.1,0.2,0.1,0.3c0,0,0,0,0,0.1c0,0.1,0,0.2,0.1,0.2c0,0,0,0,0,0
			c0,0,0,0,0,0.1c0.1,0.3,0.1,0.6,0.1,0.9c0,0.3,0.1,0.7,0.2,1c0.4,1.3,1,2.5,1.8,3.6c0.4,0.5,0.7,1.1,1.1,1.6
			c0.2,0.4,0.5,0.7,0.9,0.9c0.9,0.8,1.8,1.5,2.9,2c0.1,0.1,0.3,0.1,0.4,0.2c0.4,0.2,0.7,0.3,1.1,0.5c0.2,0.1,0.3,0.1,0.5,0.2
			c0.1,0,0.2,0.1,0.3,0.1c0.7,0.2,1.4,0.4,2.2,0.5c0,0,0,0,0,0c1.2,0.2,2.5,0.3,3.8,0.3c47.4,0,94.8,0,142.2,0c1.7,0,3.3-0.2,4.7-1
			c0.2-0.1,0.4-0.3,0.6-0.4c0.2-0.2,0.4-0.4,0.6-0.5c0.1-0.1,0.2-0.2,0.3-0.3c0,0,0,0,0,0c0.1-0.1,0.3-0.3,0.5-0.4c0,0,0,0,0,0
			c0.1-0.1,0.3-0.1,0.4-0.2c0.3-0.2,0.6-0.3,0.9-0.5c0.3-0.2,0.6-0.4,0.8-0.7c0,0,0,0,0,0c1-1,1.6-2.2,2.2-3.6
			c0.2-0.5,0.1-1.2,0.9-1c0,0,0,0,0,0c0,0,0.1,0,0.1,0C353.9,195.1,353.5,195.7,353.4,196.3z"/>
		<path class="st1" d="M355,47.5c0,47.3,0,94.5,0,141.8c0,2.4-0.4,4.8-1.6,7c0.1-0.6,0.2-1.2,0.2-1.9c0,0,0-0.1,0-0.1
			c0-0.1,0-0.2-0.1-0.3c0-0.3,0.1-0.6,0.1-0.8c0.3-3.5-0.1-7,0.3-10.5c0.1-0.8-0.1-1.6-0.2-2.4c0-0.1,0-0.2,0-0.3
			c0-0.8,0-1.5,0.1-2.3c0.1-1.3,0.3-2.5,0.3-3.8c0-35,0.1-70-0.1-105.1c0-4.2,0-8.3-0.1-12.5c0-3.2-0.1-6.4-0.1-9.6
			c0-0.2,0-0.4-0.1-0.6c-0.1-0.5-0.2-1.1-0.3-1.6c-1-3.7-3.5-6.4-6.9-8.5c-0.4-0.3-1-0.4-0.9-1.2c0,0,0,0,0,0c0,0,0,0,0,0
			c0.3-0.1,0.5-0.2,0.7-0.2c0.1,0,0.1,0,0.2,0c0.2,0,0.4,0.1,0.5,0.2c0,0,0,0,0,0c0.1,0.1,0.3,0.2,0.4,0.2c0.3,0.2,0.7,0.4,1,0.5
			c0.3,0.2,0.7,0.4,1,0.6c0.4,0.3,0.8,0.6,1.2,0.9c0.3,0.2,0.5,0.5,0.8,0.8c1.3,1.7,2.3,3.6,3.1,5.6C354.9,45,355,46.3,355,47.5z"/>
		<path class="st2" d="M354.2,46.3c-0.1,0-0.2,0.1-0.2,0.1c0,0,0,0,0,0c-0.1,0-0.1,0-0.2-0.1c0,0,0,0,0,0c-1.1-1.2-1.3-2.9-2.2-4.2
			c-2.7-4.1-6.2-6.8-11.2-7c-0.8,0-1.6,0-2.3,0c-46.2,0-92.4,0-138.7,0c-2.9,0-5.8-0.4-8.5,0.7c-0.3,0.1-0.7,0.1-1.1-0.1
			c0,0,0,0,0,0v0c0,0,0,0,0,0c-0.1-0.1-0.1-0.3,0-0.4l1.4-0.7c0.2-0.2,0.4-0.3,0.7-0.3c0.2-0.1,0.5-0.2,0.7-0.3
			c0.2-0.1,0.3-0.1,0.5-0.2c0.3-0.1,0.6-0.2,0.8-0.3c0.1,0,0.3,0,0.4-0.1c0.7-0.1,1.3-0.1,2,0c0,0,0.1,0,0.1,0
			c0.3,0.1,0.5,0.1,0.8,0.1h0c0.1,0,0.1,0,0.2,0c0.6,0,1.3,0,1.9,0h0.3c0.6,0,1.2,0,1.7,0c3,0,6,0,9,0c0.6,0,1.2,0,1.8-0.1
			c0.1,0,0.2-0.1,0.4-0.1c1.7,0,3.5,0,5.2,0c1.1,0,2.1,0,3.2,0c1.7,0,3.5,0,5.2,0.1c0.1,0,0.2,0.1,0.4,0.1c0.6,0.1,1.3,0.1,2,0.1
			h3.6c1.3,0,2.7,0,4,0h0.3c0.8,0,1.7,0,2.6,0h54.7c2.8,0,5.6,0,8.3,0c2.7,0,5.3,0,8-0.1c0,0,0,0,0,0c1.9-0.1,3.8-0.2,5.7-0.2
			c1.2,0,2.5,0,3.7,0c0.3,0,0.6,0,0.9,0c0.7,0,1.4,0.1,2.1,0.1c5.2,0.2,10.5,0.1,15.7,0.1h0.4c0.2,0,0.3,0,0.5,0c0.7,0,1.3,0,2,0
			c0.1,0,0.1,0,0.2,0c0.3,0,0.5,0,0.8,0.1c0.7,0.1,1.4,0.3,2.1,0.5c0,0,0,0,0,0c0.3,0.1,0.6,0.2,0.9,0.3c0.4,0.1,0.8,0.3,1,0.6
			c0,0,0,0,0,0c1.1,1.1,2.6,1.5,3.7,2.7C351.7,40.1,353.8,42.7,354.2,46.3z"/>
		<path class="st3" d="M354.5,43.8c-1.1-1.8-2.2-3.6-3.4-5.5c-0.6-1.1-1.7-1.6-2.7-2.2c0,0,0,0,0,0c0,0,0,0-0.1,0c0,0,0,0,0,0
			c-0.4-0.2-0.9-0.4-1.2-0.7c-0.2-0.3-0.5-0.3-0.8-0.4c0,0-0.1,0-0.1,0c-0.1,0-0.2-0.1-0.3-0.1c-0.4-0.2-0.9-0.4-1.4-0.3
			c-0.3-0.1-0.6-0.2-0.9-0.2c0,0,0,0,0,0c-0.7-0.1-1.4-0.2-2.1-0.5c-0.1,0-0.1,0-0.2-0.1c0,0,0,0,0,0c-0.7-0.5-1.5-0.2-2.2,0
			c-0.2,0-0.4,0-0.6,0c-0.2,0-0.3,0-0.5,0c-0.2,0-0.4,0-0.6-0.1c-0.7-0.2-1.4-0.2-2-0.2c-5.5,0-11,0-16.5,0h-11.7
			c-0.7,0-1.5,0-2.2,0.2c-3.4,0.1-6.8,0-10.2,0c-0.6,0-1.1-0.4-1.7-0.1c-0.1,0-0.3,0-0.4,0c-0.1,0-0.1,0-0.2,0c0,0-0.1,0-0.1,0
			c0,0,0,0,0,0c0,0-0.1,0-0.1,0c0,0,0,0,0,0c0,0,0,0,0,0c-0.4-0.1-0.8-0.1-1.2-0.1h-13.6c-5.6,0-11.3,0-16.9,0c-4.6,0-9.2,0-13.8,0
			c-0.4,0-0.8,0-1.2,0.1c0,0,0,0,0,0c0,0-0.1,0-0.1,0h0c0,0-0.1,0-0.1,0c-0.1,0-0.1,0-0.2,0c-0.1,0-0.3,0-0.4,0
			c-0.6-0.3-1.1,0.1-1.7,0.1c-1.5,0-3,0-4.4,0c-0.9,0-1.7,0-2.6,0h-0.3c-1,0-2,0-3-0.1c-0.7-0.2-1.3-0.2-2-0.2c-3.3,0-6.7,0-10,0
			c-1.1,0-2.1,0-3.2,0c-5.1,0-10.2,0-15.3,0c-0.6,0-1.3,0-1.9,0.2c-0.3,0.1-0.6,0.1-0.9,0.1c-0.3,0-0.6,0-0.8,0
			c-0.6-0.2-1.2-0.2-1.8-0.3c-0.3,0-0.5,0-0.7-0.1c-0.1,0-0.1-0.1-0.2-0.2c-0.1-0.1-0.1-0.2-0.1-0.3c4-0.3,8-0.1,12.1-0.1
			c20.9,0,41.8-0.1,62.7-0.1c19.8,0,39.6,0.1,59.4,0.1c4.1,0,8.2-0.3,12.3,0.1C347.8,33,353.7,38.1,354.5,43.8z"/>
		<path class="st4" d="M245.4,33.5c0,0.1-0.1,0.1-0.1,0.2c-0.2,0.1-0.5,0.1-0.7,0.1c0,0-0.1,0-0.1,0c-0.1,0-0.2,0-0.3,0
			c-4.1,0-8.1,0-12.2,0c-0.2,0-0.4,0-0.5-0.1c-0.2,0-0.4,0-0.6-0.1c-1.9-0.1-3.8-0.1-5.7-0.1c-6.6-0.2-13.2,0.1-19.8,0.1
			c-1.3,0-2.5,0-3.8,0c-0.2,0-0.3,0-0.5,0.1c0,0-0.1,0-0.1,0c-1.1,0.1-2.2,0-3.3,0.1c-0.3,0-0.7-0.1-1-0.1c-0.2,0-0.4-0.1-0.6-0.1
			c-0.8-0.1-1.6-0.1-2.4,0.1c-0.3,0.2-0.7,0.2-1,0.3c-0.3,0.1-0.7,0.2-0.9,0.5c-0.3,0-0.6,0-0.9,0c0.6-1.2,1.8-1.2,2.9-1.4
			c0.6-0.1,1.2-0.1,1.9-0.1c0.9,0,1.8,0.1,2.6,0.2h1.6c0.3-0.2,0.7-0.1,1.1-0.1c10.2,0,20.4,0,30.6,0c0.4,0,0.7-0.1,1.1,0.1h10.7
			c0.5-0.2,0.9-0.2,1.4,0c0,0,0,0,0.1,0c0.2,0.1,0.3,0.1,0.5,0.2h0c0,0,0,0,0,0c0,0,0,0,0,0c0,0,0,0,0,0l0,0c0,0,0,0,0,0
			C245.4,33.4,245.4,33.4,245.4,33.5z"/>
		<path class="st5" d="M189.3,35.9c-0.1,0.1-0.1,0.2-0.2,0.3c0,0,0,0.1-0.1,0.1c-0.8,0.7-1.7,1.3-2.3,2.2c-0.2,0.1-0.3,0.3-0.5,0.5
			c-0.1,0.1-0.2,0.2-0.4,0.2c0,0-0.1,0-0.1,0c0,0-0.1,0-0.1,0h0c-0.1,0-0.2-0.1-0.3-0.2c1-1.6,2.2-3,4-3.8
			C189.5,35.5,189.4,35.7,189.3,35.9z"/>
		<path class="st6" d="M198.4,33.1c-0.8,0-1.7,0-2.5,0c-0.7,0-1.4,0-2,0c0.5-0.4,1.2-0.4,1.8-0.5C196.5,33.1,197.6,32.4,198.4,33.1z
			"/>
		<path class="st7" d="M185.9,39.6c0,0.2-0.1,0.3-0.1,0.5c-0.3,0.3-0.3,0.9-0.8,1c-0.1,0-0.2,0-0.2,0c0-0.1,0-0.2,0-0.4
			c0.1-0.6,0.4-1.1,0.8-1.6c0.1,0,0.3,0,0.4,0c0,0,0.1,0.1,0.1,0.1c0,0,0,0.1,0,0.1C185.9,39.4,185.9,39.5,185.9,39.6z"/>
		<path class="st1" d="M189.6,35.5L189.6,35.5c0,0.5-0.1,0.7-0.5,0.7c-0.1,0-0.2-0.1-0.4-0.1c0.2-0.3,0.4-0.6,0.6-0.9
			c0.1-0.1,0.1-0.1,0.2-0.1C189.6,35.3,189.6,35.4,189.6,35.5z"/>
		<path class="st8" d="M188.8,36.1c0.4,0,0.7-0.2,0.8-0.5c2.6-1.1,5.3-1.1,8.1-1.1c47.4,0,94.7,0,142.1,0c3.6,0,6.6,1.4,9.2,3.8
			c2.5,2.2,4,4.9,4.9,8.1c0.2,0.4,0.1,0.8,0.1,1.2c-0.1,12.3,0.2,24.5,0.2,36.8c0,29.6,0,59.1,0,88.7c0,5.6-0.1,11.2-0.1,16.9
			c0,1.5-0.1,3-0.4,4.5c-0.8,1.4-1.1,3.1-2.3,4.3c-0.8,0.9-1.5,2-2.9,2c-0.2-0.6,0.2-0.9,0.7-1.2c1-0.3,1.3-1.2,1.7-2
			c0.5-0.9,1-1.8,1.4-2.7c0.6-1.4,0.2-2.8,0.1-4.2c0-0.6-0.2-1.2-0.2-1.8c0-16.8-0.1-33.5,0-50.3c0.1-12.4,0.2-24.7,0.1-37.1
			c-0.1-10.5,0-21-0.1-31.6c0-7-0.1-13.9,0-20.9c0.1-3.7-1.3-6.5-3.6-9.2c-2.3-2.7-5.4-3.8-8.9-3.8c-39,0-77.9,0-116.9,0
			c-8.1,0-16.2,0-24.3,0c-1.8,0-3.5-0.4-5.3-0.1c-3,0.5-5.4,1.8-7,4.5c-0.4,0.6-0.6,1.7-1.8,1.3c0.1-0.3,0.2-0.5,0.3-0.8
			c0.3-0.4,0.5-0.7,0.8-1.1c0.4-0.6,0.7-1.1,1.1-1.7C187.1,37.3,187.9,36.7,188.8,36.1z"/>
		<path class="st9" d="M184.4,41.9c0.8-0.1,1-0.8,1.3-1.3c2.6-4.3,6.6-5.4,11.3-4.8c0.6,0.1,1.2,0.1,1.8,0.1c47.1,0,94.1,0,141.2,0
			c5.1,0,8.5,2.6,11,6.8c1.2,2,1.6,4.2,1.6,6.5c-0.1,4.8,0,9.7,0,14.6c0,2.3,0,4.5,0,6.8c-0.1,21.4,0.7,42.7,0.2,64.1
			c-0.4,17.7,0,35.3-0.2,53c0,1.5,0.1,3,0.4,4.4c0.4,2.5-0.9,4.2-2,6.1c-0.3,0.3-0.5,0.5-0.7,0c0.2-1.2,1.2-2.1,1.3-3.4
			c0.1-1.2,0.2-2.4,0-3.7c-0.1-0.6-0.1-1.3-0.1-1.9c0-46.8,0-93.7,0-140.5c0-4.8-3.9-11.1-10-11.8c-0.3,0-0.5,0-0.8,0
			c-23,0-46,0-68.9,0c-25.1,0-50.1,0-75.2,0c-2.6,0-5.2,0.1-7.5,1.8c-2.6,2-4.2,4.5-3.8,7.9c0,0.3,0,0.5,0,0.8c0,0.6,0,1.3,0,1.9
			c0.2,30.1-0.6,60.1-0.2,90.2c0.2,16,0.1,31.9,0.2,47.9c0,2.7,0.3,5.3,1.5,7.7c0.2,0.3,0.3,0.7,0.3,1c-0.6,1-0.9,0.2-1.2-0.2
			c-0.8-1.3-1.4-2.7-1.6-4.2c0-0.3-0.1-0.7-0.2-1c-0.3-0.6-0.2-1.2-0.2-1.8c0-47.1,0-94.1,0-141.2c0-1.8,0.1-3.6,0.8-5.4
			C184.4,42.2,184.4,42,184.4,41.9z"/>
		<path class="st10" d="M348.1,200.9c-0.2,0.2-0.4,0.4-0.6,0.6c-1.5,1.1-3.2,1.6-5,1.6c-48.4,0-96.8,0-145.1,0
			c-1.3,0-2.5-0.4-3.8-0.7c-0.4-0.3-1.4-0.2-0.9-1.2c2.2-0.1,4.3,0.6,6.5,0.6c46.6,0,93.2,0,139.8,0c2.4,0,4.7-0.2,7-1.1
			C346.8,200.9,347.5,200.3,348.1,200.9z"/>
		<path class="st7" d="M193.5,202.3c2.4,0.6,4.9,0.6,7.4,0.6c46.5,0,93,0,139.5,0c2.6,0,5-0.3,7.3-1.4c-1.1,1.6-2.9,1.6-4.5,1.9
			c-0.3,0.1-0.6,0-1,0c-48.1,0-96.2,0-144.3,0c-1.7,0-3.3-0.4-4.9-1.1C193.1,202.1,193.3,202.1,193.5,202.3z"/>
		<path class="st11" d="M184.4,42.4c-1.2,13-0.5,26-0.5,38.9c-0.1,35.7,0,71.5,0,107.2c0,0.8,0,1.6,0.3,2.4
			c-0.3,0.2-0.4-0.1-0.5-0.3c0-0.1,0-0.2,0-0.3c-0.3-0.5-0.1-1-0.1-1.5c0-47.1,0-94.2,0-141.3c0-0.5-0.1-1,0.1-1.5
			c0-0.1,0-0.2,0-0.3c0.4-0.7-0.1-1.5,0.3-2.2C183.8,43.2,184,42.8,184.4,42.4z"/>
		<path class="st7" d="M183.6,46.3c0,48.1,0,96.2,0,144.2c-0.4-0.4-0.3-0.9-0.3-1.4c0-47.1,0-94.2,0-141.3
			C183.3,47.2,183.2,46.7,183.6,46.3z"/>
		<path class="st11" d="M193.5,202.3c-0.2,0-0.4,0-0.5,0c-1.8-0.7-3.6-1.5-4.9-3c-0.3-0.2-0.6-0.5-0.8-0.8c-1.3-1.6-2.5-3.2-3-5.2
			c-0.2-0.5-0.2-0.9,0-1.4c0.7,1,0.6,2.2,1.3,3.3c0.4,0.5,0.6,1.1,1.2,1.4c0.9,0.2,1.1,1,1.6,1.6c1.3,1.4,3,2.2,4.4,3.4
			C192.9,201.7,193.2,202,193.5,202.3z"/>
		<path class="st9" d="M348.1,200.9c-0.5,0.1-1.1,0.2-1.6,0.3c0.3-1,1.5-1.8,2.7-1.7c0.1,0.1,0.1,0.2,0,0.4
			c-0.4,0.2-0.6,0.5-0.8,0.8C348.3,200.7,348.2,200.8,348.1,200.9z"/>
		<path class="st7" d="M184.1,191.9c0,0.5,0,0.9,0,1.4c-0.5-0.8-0.1-1.7-0.5-2.5c0.2,0.1,0.4,0.2,0.5,0.3
			C184.1,191.3,184.1,191.6,184.1,191.9z"/>
		<path class="st7" d="M183.8,43.8c-0.1,0.7,0.2,1.5-0.3,2.2C183.7,45.2,183.3,44.5,183.8,43.8z"/>
		<path class="st7" d="M187.1,198.4c0.4,0.2,0.6,0.5,0.8,0.8C187.5,199.2,187.2,199,187.1,198.4z"/>
		<path class="st0" d="M353.6,194.3c0.6-49.4,0.1-98.7,0.3-148.1c0.1,0,0.2,0,0.3,0c0,5.4-0.1,10.9,0,16.3
			c0.6,37.2,0.1,74.5,0.2,111.7c0,5.8-0.1,11.6-0.2,17.4C354.1,192.6,354,193.5,353.6,194.3z"/>
		<path class="st4" d="M347.3,35c0.2,0.5,0.7,0.6,1.1,0.8c0.1,0.1,0.1,0.1,0.1,0.2c0,0.1-0.1,0.1-0.1,0.1c-1-0.2-1.7-1-2.7-1.1
			c-0.3,0-0.6,0-0.8-0.3c-1.9-0.6-3.8-1-5.8-1c-8.3-0.1-16.5-0.3-24.8-0.2c-6.8,0.1-13.7,0.3-20.5,0.2c-0.4,0-0.8,0-1.1,0
			c-0.1-0.1-0.2-0.1-0.3-0.3c0.1-0.3,0.4-0.3,0.6-0.4c0.5-0.2,0.9-0.2,1.4,0c3.6,0,7.1,0,10.7,0c0.3-0.2,0.7-0.1,1.1-0.1
			c10.2,0,20.4,0,30.6,0c0.4,0,0.7-0.1,1.1,0.1c0.5,0,1.1,0,1.6,0c0.7-0.2,1.5-0.2,2.2,0c1,0.5,2.2,0.5,3.3,0.8
			c0.4,0.2,0.9,0.3,1.4,0.6l0,0C346.5,34.7,346.9,34.8,347.3,35z"/>
		<path class="st6" d="M348.4,36.1c0-0.1,0-0.2,0-0.3c1.1,0.7,2.3,1.1,2.7,2.5C350.2,37.6,349.3,36.8,348.4,36.1z"/>
		<path class="st1" d="M293.2,33.6c8.5-0.1,17-0.2,25.5-0.3c5.4,0,10.7,0,16.1,0c2,0,4,0.3,6,0.2c1.3-0.1,2.9,0.3,4.1,1.2
			c-5.6-1.5-11.3-0.7-16.9-0.8c-4.9-0.1-9.8-0.6-14.6-0.3c-6.7,0.5-13.4,0.1-20.1,0.2C293,33.8,293,33.7,293.2,33.6z"/>
		<path class="st5" d="M293.2,33.6c0,0.1,0,0.2,0,0.3c-0.4,0-0.7,0-1.1,0c-0.4-0.2-0.8-0.1-1.2-0.1c-14.7,0-29.3,0-44,0
			c-0.4,0-0.8-0.1-1.2,0.1c-0.4,0-0.7,0-1.1,0c-0.2-0.1-0.2-0.2,0-0.3c0.3,0,0.6,0,0.8-0.3c0.4-0.4,0.9-0.3,1.4-0.3
			c14.7,0,29.4,0,44.1,0c0.5,0,1-0.1,1.4,0.3C292.6,33.6,292.9,33.6,293.2,33.6z"/>
		<path class="st1" d="M245.7,33.9c0.4-0.4,0.9-0.3,1.4-0.3c14.5,0,29,0,43.6,0c0.5,0,1-0.1,1.4,0.3
			C276.6,33.9,261.1,33.9,245.7,33.9z"/>
		<path class="st5" d="M200.9,33.6c0.4-0.4,0.9-0.3,1.4-0.3c9.4,0,18.8,0,28.2,0c0.5,0,1-0.1,1.4,0.3c-2,0.2-4,0.2-6,0
			c-4.6,0-9.2,0-13.7,0c-2.9,0.3-5.9,0.1-8.8,0.1C202.5,33.8,201.7,33.9,200.9,33.6z"/>
		<path class="st1" d="M225.9,33.6c2,0,4,0,6,0c4.2,0,8.4,0,12.6,0c0,0.1,0,0.2,0,0.3c-5.7,0-11.4,0-17.1,0
			C226.9,33.9,226.3,34,225.9,33.6z"/>
		<path class="st1" d="M200.9,33.6c3.8,0,7.5,0,11.3,0c-0.3,0.3-0.8,0.3-1.2,0.3c-4.6,0-9.3,0-13.9,0c-0.4,0-0.8,0.1-1.2-0.3
			c0.5-0.2,1.1-0.2,1.6,0C198.7,33.6,199.8,33.6,200.9,33.6z"/>
		<path class="st5" d="M197.6,33.6c-0.5,0-1.1,0-1.6,0c-0.7,0-1.5,0-2.2,0C195,33.2,196.3,33.2,197.6,33.6z"/>
		<path class="st5" d="M191.8,34.4c0.4-0.9,1.2-0.8,1.9-0.8C193.2,34.3,192.4,34.1,191.8,34.4z"/>
		<path class="st4" d="M292.4,33.3c-15.7,0-31.3,0-47,0c0,0,0,0,0,0c-0.1-0.7,0.7-0.2,0.8-0.5c4.8,0,9.5,0,14.3,0
			c0.3,0.2,0.7,0.1,1.1,0.1c5,0,9.9,0,14.9,0c0.4,0,0.7,0.1,1.1-0.1c4.7,0,9.3,0,14,0C291.7,33.1,292.4,32.6,292.4,33.3L292.4,33.3z
			"/>
		<path class="st6" d="M337.7,33.1c-10.9,0-21.8,0-32.7,0c0.4-0.4,0.9-0.3,1.4-0.3c9.9,0,19.9,0,29.8,0
			C336.7,32.8,337.3,32.7,337.7,33.1z"/>
		<path class="st6" d="M232.7,33.1c-10.9,0-21.8,0-32.7,0c0.4-0.4,0.9-0.3,1.4-0.3c9.9,0,19.9,0,29.8,0
			C231.8,32.8,232.3,32.7,232.7,33.1z"/>
		<path class="st6" d="M277.5,32.8c-0.3,0.3-0.8,0.3-1.2,0.3c-4.9,0-9.8,0-14.7,0c-0.4,0-0.8,0.1-1.2-0.3
			C266.2,32.8,271.8,32.8,277.5,32.8z"/>
		<path class="st6" d="M341.5,33.1c-0.7,0-1.5,0-2.2,0C340.1,32.7,340.8,32.7,341.5,33.1z"/>
		<path class="st6" d="M292.4,33.3c-0.3-0.2-0.6-0.4-0.8-0.5c0.5,0,0.9,0,1.4,0.3C292.7,33.2,292.5,33.3,292.4,33.3z"/>
		<path class="st6" d="M246.2,32.8c-0.3,0.2-0.6,0.4-0.8,0.5c-0.2-0.1-0.4-0.2-0.5-0.3C245.3,32.8,245.7,32.8,246.2,32.8z"/>
		<path class="st6" d="M346.2,34.4c-0.5,0-1-0.1-1.4-0.6C345.4,33.9,345.8,34,346.2,34.4z"/>
		<path class="st6" d="M244.8,33.1c-0.5,0-0.9,0-1.4,0C243.9,32.7,244.4,32.7,244.8,33.1z"/>
		<path class="st6" d="M294.3,33.1c-0.5,0-0.9,0-1.4,0C293.4,32.7,293.8,32.7,294.3,33.1z"/>
		<path class="st6" d="M347.3,35c-0.5,0-0.9-0.1-1.1-0.6C346.6,34.5,347,34.6,347.3,35z"/>
		<path class="st11" d="M186.6,38.3c-0.2,0.7-0.5,1.2-1.1,1.7c0.1-0.3,0.2-0.5,0.3-0.8C186,38.7,186.2,38.5,186.6,38.3z"/>
		<path class="st10" d="M349.2,199.8c0-0.1,0-0.2,0-0.3c-0.1-0.8,0.3-1.2,1.1-1.1c0.2-0.1,0.4-0.2,0.5-0.3
			C350.6,199,350.1,199.6,349.2,199.8z"/>
		<path class="st12" d="M351.7,188.7c0-46.9,0-93.8,0-140.6c0-3.8-2-6.8-4.7-9.2c-2.1-1.9-4.7-2.5-7.6-2.5c-24.6,0.1-49.2,0-73.8,0
			c-3.3,0-6.5,0-9.8,0c-20.9,0.2-41.8-0.4-62.7,0.3c-2.5,0.1-5.1,1.7-6.7,3.7c-0.3,0.4-0.6,0.9-0.9,1.4c-0.1,0.2-0.2,0.3-0.2,0.5
			c-0.7,1.8-0.5,3.6-0.6,5.5c-0.1,15.9,0.1,31.7-0.2,47.6c-0.2,16.1-0.2,32.3,0.1,48.5c0.3,15.1,0.1,30.2,0.1,45.3
			c0,0.7-0.1,1.4,0,2.1c0.4,1.8,1.3,3.4,1.8,5.2c0,0,0,0.1,0,0.1c0.7,1.8,2.4,2.8,3.7,4c0.2,0.2,0.5,0.4,0.8,0.6
			c0.1,0,0.1,0.1,0.2,0.1c0.1,0,0.1,0.1,0.2,0.1c0.3,0.1,0.7,0.2,1.1,0.2c0,0,0.1,0,0.1,0c2.2,0.4,4.3,0.8,6.5,0.8
			c46.3,0,92.7,0,139,0c2.8,0,5.6-0.1,8.2-1.1c0.2-0.2,0.5-0.4,0.7-0.5c0.5-0.4,1-0.7,1.5-0.9c0.2-0.1,0.3-0.1,0.5-0.2c0,0,0,0,0,0
			c0,0,0.1-0.1,0.1-0.1c0.2-0.4,0.6-0.7,1-0.9c0,0,0,0,0,0c0,0,0,0,0,0c0,0,0,0,0-0.1c0.3-1.1,1.2-1.9,1.4-3.1
			C352.2,193,351.7,190.9,351.7,188.7z M324,57.7c-0.4-1.3-0.5-2.8,0.2-4.1c0.9,0.2,1.1-0.8,1.8-1c1.9-0.4,3.7-0.5,5.6,0
			c0.4,0.5,0.9,0.7,1.4,1.1c1.3,0.9,2.3,2.1,2.5,3.8c0.5,1.5,0.2,2.9-0.1,4.4C331.4,64.9,325.4,63,324,57.7z"/>
		<path class="st13" d="M185.2,46c0.2-5.9,3.3-7.8,8.1-8.8c1.4-0.3,2.8-0.3,4.2-0.3c47.5,0,95,0,142.5,0c6.5,0,10.9,6.2,10.9,10.9
			c0,46.9,0,93.7,0,140.6c0,1.5,0.1,3,0.3,4.5c0.3,3.7-1.7,5.9-4.7,7.5c-2.5,1.3-5.1,1.7-7.8,1.7c-46.7,0-93.4,0-140.1,0
			c-0.8,0-1.7,0.2-2.3-0.5c0.2-0.4,0.5-0.6,0.8-0.6c0.8-0.1,1.6,0,2.5,0c46.9,0,93.8,0,140.7,0c1.4,0.1,2.8-0.2,4.2-0.6
			c0.1-0.1,0.3-0.1,0.4-0.2c3.6-1,6.4-4.8,5-9.1c0.2-5.3,0.2-10.5,0-15.8c-0.1-2-0.2-4-0.2-6c0-36.1,0-72.2,0-108.2
			c0-4.4,0.1-8.9,0-13.3c0-4.5-3.3-8.8-7.8-9.4c-0.3,0-0.6-0.2-0.9-0.3c-1.6-0.3-3.3-0.3-4.9-0.3c-45.9,0-91.9,0-137.8,0
			c-2.5,0-4.9,0.4-7.2,1.4c-2.6,1-4.1,2.9-4.8,5.6C186.1,45.1,186.1,45.9,185.2,46z"/>
		<path class="st14" d="M196.8,201.2c-0.2,0.1-0.4,0.2-0.5,0.3c-3.9,0-8.1-3.1-9.7-6.6c-1.1-2.3-1.3-4.6-1.3-7
			c0-47.3,0-94.6,0-141.9c0.1-0.2,0.4-0.5,0.4-0.7c0.5-4.2,3.2-6.3,6.9-7.4c1.5-0.5,3.1-0.7,4.7-0.7c47.4,0,94.8,0,142.1,0
			c0.5,0,1.1-0.2,1.6,0.3c-0.5,0.6-1.3,0.4-1.9,0.4c-20,0-39.9,0-59.9,0c-2.4,0-4.8-0.1-7.1,0c-2.1,0.1-4.2,0.3-6.3,0.3
			c-22.4-0.6-44.7-0.1-67.1-0.3c-3.3,0-6.5,0.6-9.4,2.5c-1.8,1.2-2.5,2.8-2.8,4.8c0,0.3,0,0.5,0,0.8c0,48,0,95.9,0,143.9
			c0,2.7,0.9,5.1,2.7,7.1c0.5,0.3,0.8,0.8,1.2,1.1c1.5,1.3,3.3,2.1,5.3,2.3C196.1,200.6,196.7,200.4,196.8,201.2z"/>
		<path class="st15" d="M196.8,201.2c-1.9-0.3-3.8-0.8-5.5-1.8c-0.4-0.2-1-0.3-1.1-0.9c0.2-0.2,0.4-0.2,0.6-0.2
			c1.3,0.7,2.5,1.4,4,1.6c1.9,0.3,3.8,0.4,5.7,0.4c46.1,0,92.2,0,138.4,0c2.3,0,4.6-0.3,6.7-1.5c2.4-1.4,3.4-3.6,3.5-6.3
			c-0.4-1.3,0-2.6,0-3.9c0-22.8,0.2-45.6-0.1-68.4c-0.2-19.8,0-39.7-0.2-59.5c0-4.2,0.2-8.3,0-12.5c-0.2-5.9-3.5-9.4-9.3-9.4
			c-21.4,0-42.8,0-64.1,0c-0.6,0-1.3,0-1.9,0.2c-0.7-0.2-1.5-0.2-2.2-0.2c-24.8,0-49.6,0-74.4,0c-2.9,0-5.5,0.7-7.7,2.7
			c-1.4,1.2-2,2.7-2.1,4.5c0,0.5,0,0.9,0,1.4c0,47.4,0,94.9,0,142.3c0,1.3,0.1,2.6,0.5,3.8c0.1,0.1,0.1,0.3,0.2,0.4
			c0.2,0.8,0.6,1.5,1.1,2c0.2,0.3,0.4,0.6,0.6,1c0.1,0.3,0.2,0.6,0,0.9c-0.7-0.1-1-0.6-1.3-1.1c-1.3-2-2-4.1-2-6.6
			c0-47.9,0-95.8,0-143.8c0-3.2,1.4-5.3,4.2-6.8c2.5-1.3,5.3-1.9,8-1.9c21.3-0.1,42.6-0.1,63.9,0c2.2,0,4.4,0.3,6.6,0.2
			c24.1-0.6,48.2-0.1,72.3-0.3c2.5,0.4,4.7,1.3,6.4,3.3c1.6,1.8,2.6,3.9,2.6,6.4c0,41.5-0.1,82.9,0.1,124.4c0,6.6,0.1,13.2,0.2,19.7
			c0.6,3.8-1.1,7-4.5,8.5c-0.3,0.2-0.7,0.3-1,0.5c-1.3,0.5-2.7,0.6-4.1,0.8C292.7,201.2,244.7,201.2,196.8,201.2z"/>
		<path class="st14" d="M344.8,200.4c0.7-1,1.9-1,2.7-1.8c2.2-2,2.8-4.5,2.8-7.3C351.6,195.1,348.7,199.5,344.8,200.4z"/>
		<path class="st14" d="M340.7,201.2c1.3-0.4,2.7-0.7,4.1-0.8C343.5,201.1,342.1,201.2,340.7,201.2z"/>
		<path class="st16" d="M189.3,197.6c-0.1-0.3-0.2-0.5-0.3-0.8c1.1,0,1.6,0.6,1.6,1.6c-0.2,0-0.4,0-0.5,0
			C189.8,198.3,189.5,198,189.3,197.6z"/>
		<path class="st17" d="M190.7,198.4c-0.4-0.7-1-1.2-1.6-1.6c-0.2-0.3-0.4-0.5-0.5-0.8c-0.4-0.6-0.8-1.2-1.1-1.9
			c-0.5-1.3-0.7-2.7-0.7-4.2c0-47.6,0-95.2,0-142.8c0-1.2,0.1-2.5,0.6-3.6c0.3-0.7,0.6-1.4,1.5-1.6c0.4,0.5,0.1,1-0.1,1.4
			c-0.7,1.5-0.8,3.1-0.8,4.7c0,46.6,0.1,93.3,0,139.9c0,1.5,0.2,2.9,0.3,4.4c0.4,3.2,3.2,6.9,7.9,7c0.5,0,1,0,1.5,0c47,0,94,0,141,0
			c2.2,0,4.3-0.4,6.2-1.5c1.2-0.7,2.2-1.6,2.7-3c0.6-1.5,0.6-3.1,0.6-4.8c-0.1-7.4-0.1-14.7,0-22.1c0.2-1,0.3-2.1,0.3-3.1
			c0-12.6,0-25.1,0-37.7c0-3.9-0.5-7.8-0.3-11.8c0-0.6-0.2-1.3-0.3-1.9c-0.1-1.4,0-2.9-0.1-4.3c0.3-1.8,0.4-3.6,0.4-5.5
			c0-18.6,0.1-37.2-0.1-55.8c0-4.7-3.4-8.4-8.2-8.4c-14.5,0-28.9,0-43.4,0c-33.9,0-67.8,0-101.8,0c-0.6,0-1.2,0.1-1.7-0.4
			c-0.1-0.4,0.2-0.4,0.5-0.4c1.5-0.1,3.1-0.3,4.6-0.3c24.5,0,49,0,73.4,0c0.5,0,1.1-0.1,1.6,0.1c0.5-0.3,1.1-0.3,1.7-0.3
			c21.5,0,43,0,64.5,0c5.6,0,9.6,4,9.5,9.6c0,3.2,0.2,6.5-0.2,9.7c-0.1,1,0.2,2.1,0.2,3.1c0,15.8-0.2,31.7,0,47.5
			c0.4,26.6,0.1,53.2,0.2,79.8c0,1.4-0.4,2.9,0,4.3c-0.4,0.8-0.1,1.7-0.5,2.5c-1.7,3.8-4.7,5.3-8.6,5.4c-0.4,0-0.8,0-1.2,0
			c-47,0-94,0-141,0c-1.3,0-2.6,0-3.9-0.3C192.9,200,191.7,199.4,190.7,198.4z"/>
		<path class="st16" d="M194.3,200.1c48.8,0,97.6,0,146.4,0c3.8,0,7-2.4,8.4-5.5c0.3-0.7-0.3-1.6,0.5-2.2c0.3,4.3-3.2,7.4-7.2,8
			c-1.4,0.2-2.8,0.3-4.2,0.3c-46.6,0-93.3,0-139.9,0C196.8,200.6,195.5,200.5,194.3,200.1z"/>
		<path class="st16" d="M273.4,38.6c-25.2,0-50.4,0-75.6,0c-1.5,0-3.1,0.1-4.6,0.5c-0.1,0.5-0.4,0.7-0.8,0.9c-1,0.2-1.7,0.8-2.5,1.4
			c-0.3,0.3-0.6,0.7-1.2,0.5c-1.8,1.1-1.6,3.1-1.9,4.8c-0.1,0.4,0,0.9,0,1.4c0,43.8,0,87.6,0,131.4c0,4.9-0.4,9.8,0.5,14.6
			c-0.8-1.1-0.8-2.3-0.8-3.5c0-7.7,0-15.5,0-23.2c0-40.2,0-80.5,0-120.7c0-4,3.1-7.5,7.1-8c1.5-0.2,2.9-0.2,4.4-0.2
			c24.5,0,49,0,73.5,0C272.2,38.3,272.8,38.1,273.4,38.6z"/>
		<path class="st16" d="M187.4,194.1c0.5,0.6,1,1.1,1.1,1.9C187.9,195.5,187.4,194.9,187.4,194.1z"/>
		<path class="st18" d="M348.4,109.2c0,1.4,0,2.7,0,4.1c0.4,1.1,0,2.3,0,3.4c0,5.2,0.1,10.4,0.3,15.6c0.1,2.7-0.1,5.4-0.1,8.1
			c-0.1,8.4,0.2,16.7,0.1,25.1c0,0.8-0.2,1.6,0,2.4c0,7.2-0.1,14.4,0,21.6c0,1.8,0.2,3.6-0.6,5.3c-0.9,1.4-1.8,2.7-3.7,2.6
			c-16.4,1.2-32.9,0.3-49.4,0.5c-16.4,0.2-32.9,0-49.3,0c-16.5,0-33-0.1-49.4,0.1c-3.5,0-6.4-2.5-6.9-5.7c-0.3-2-0.5-4.1-0.5-6.1
			c-0.4-24.1-0.2-48.1-0.3-72.2c0-1.1,0-2.2,0.6-3.2c0.9-0.1,0.9,0.6,0.9,1c-0.1,2.5,0.5,5,0.3,7.5c-0.3,0.7-0.4,1.5-0.4,2.3
			c0,9.6-0.1,19.1,0,28.7c0.1,7.7,0.2,15.4,0.3,23c0.1,5.1,0.1,10.2,0.1,15.2c0,1.1,0.3,2,1.2,2.6c0.8,0.5,1.4,1.2,1.9,2
			c0.6,0.9,1.4,1.3,2.6,1.2c1-0.1,2-0.1,3-0.1c19.2,0,38.4-0.2,57.5,0.1c27.5,0.4,54.9,0.1,82.3,0.2c1.2,0,2.4,0,3.4,0.7
			c1.3,0.8,2.7,1,3.9,0c1.4-1.1,1.7-2.6,1.4-4.2c-0.3-1.4-0.2-2.8-0.2-4.2c0.2-0.7,0.2-1.4,0.2-2.2c0-3.7,0.2-7.5-0.1-11.2
			c-0.3-4.5-0.1-9-0.2-13.5c0-0.5-0.1-0.9-0.2-1.3c-0.1-2.2,0-4.4-0.1-6.6c0-1.1,0-2.3,0-3.4c-0.2-4.2,0.3-8.4,0.3-12.6
			c0-3.5-0.5-7-0.3-10.5c0-0.4-0.1-0.8-0.2-1.2c-0.1-1.6,0-3.2-0.1-4.8c0-6.6,0-13.3,0-19.9c0-1.2,0.2-2.4,0.6-3.6
			c1.2,0,0.6,1,0.8,1.5c0.1,3.5,0.3,7.1,0,10.6C348.2,108.5,348.2,108.9,348.4,109.2z"/>
		<path class="st19" d="M344.8,197.1c1.5-0.2,2.3-1.2,3.3-2.2c-0.8,2.4-2.8,3.5-5,4.3c-1.1,0.4-2.2,0.6-3.3,0.6
			c-47.6,0-95.3,0-142.9,0c-4.7,0-8.9-3.7-9.2-8.4c-0.1-1.6-0.2-3.3-0.2-4.9c0-45.3,0-90.5,0-135.8c0-3,0-6,1.4-8.8
			c1.1-0.8,2-2.1,3.6-2.2c0.2-0.2,0.3-0.1,0.5-0.1c0.2,0.4-0.1,0.6-0.4,0.7c-0.4,0.2-0.8,0.3-1.1,0.7c-0.3,0.4-0.7,0.5-1,0.9
			c-0.4,0.4-0.6,1-0.9,1.5c-0.4,1-0.6,2.1-0.6,3.2c0,7.4-0.1,14.7,0,22.1c0.2,10.7,0.1,21.3,0.1,32c0,4,0,8-0.2,12.1
			c-0.1,2.6,0.1,5.1,0.1,7.7c0,17.1,0,34.2,0,51.2c0,5.9,0,11.9,0.2,17.8c0.1,2.5,0.3,5.1,2.5,6.9c1.2,1,2.5,1.6,4.1,1.6
			c48.2,0,96.3,0,144.5,0C341.8,198,343.3,197.4,344.8,197.1z"/>
		<path class="st20" d="M192.9,39.7c-0.2,0-0.4,0-0.5,0c0.3-0.2,0.5-0.4,0.8-0.5c33,0,66,0,99,0c15.9,0,31.9,0,47.8,0
			c3.9,0,6.4,1.8,7.9,5.4c0.6,1.4,0.8,2.9,0.8,4.4c0,11.4,0,22.9,0,34.3c-0.1,8.6,0.3,17.3-0.3,25.9c-0.2-0.2-0.3-0.6-0.3-0.9
			c0-3.6,0.1-7.1-0.3-10.7c0.5-1.3-0.2-2.5-0.2-3.8c0-12.9,0-25.8,0.1-38.7c0-3.1-0.2-6.2-0.4-9.3c-0.5-2-1.5-3.6-3.2-4.7
			c-1.2-0.8-2.6-1-4-1c-47.6,0-95.2,0-142.8,0c-1.3,0-2.7,0-4-0.2C193.2,39.8,193.1,39.8,192.9,39.7z"/>
		<path class="st20" d="M348.7,168c-0.3-0.3-0.3-0.7-0.3-1c0-0.5,0-1,0-1.5c0.1-7.7-0.1-15.4-0.3-23.1c0-2.4,0.4-4.7,0.3-7.1
			c-0.1-3.5-0.4-7-0.3-10.5c0.1-3.8-0.1-7.6,0.3-11.4c0.3,0.3,0.3,0.8,0.3,1.2c0,7.7,0.4,15.5,0.3,23.2c-0.1,9.3,0,18.7,0,28
			C349,166.4,348.9,167.2,348.7,168z"/>
		<path class="st21" d="M348.3,191.8c0-0.2,0-0.3-0.1-0.5c-0.3-1.5-0.3-2.9-0.4-4.3c0-3.1,0-6.2,0-9.2c0-0.4,0.1-0.7-0.1-1.1
			c-0.1-0.2-0.2-0.3-0.5-0.5c0,0,0,0,0,0c0,0,0,0,0,0c-0.5,0.1-0.4,0.5-0.4,0.8c0.1,3.7,0,7.5,0.1,11.2c0,0.8-0.1,1.6,0.1,2.4
			c0,0.1,0,0.1,0.1,0.2c0,0.1,0.1,0.2,0.1,0.3c0.1,0.2,0.1,0.3,0.2,0.5c0.3,1-0.6,3.1-1.6,3.6c-1.1,0.5-1.9,0-2.7-0.7
			c0,0,0,0-0.1-0.1c-0.5-0.4-0.7-0.9-0.7-1.4c0-0.4,0.2-0.8,0.5-1.2c0.6-1,0.8-2,0.8-3.1c0.1-10.1-0.1-20.1,0.2-30.2
			c0.4-13.5-0.2-27,0.3-40.5c0.2-6.2-0.1-12.4,0.2-18.7c0.2-5.1,0.1-10.1,0.2-15.2c0.3-11.7-0.1-23.4,0.5-33.9
			c0.2,2-0.5,5.3,0.1,8.5c0.2,1,0.3,2,0.3,3c0.1,6.1-0.1,12.2,0.2,18.2c0.3,7.9,0,15.9,0.4,23.9c0.4,6.7,0.1,13.4,0.3,20.2
			c0.3,11.1,0.1,22.2,0.3,33.3c0.1,5.4,0,10.8,0,16.2c0,0.5,0,0.9,0,1.4c0.1,0.4,0.1,0.8,0.6,0.8c0,0,0,0,0,0c0,0,0,0,0.1,0
			c0.3-0.3,0.4-0.6,0.4-1v-0.1c0-0.1,0-0.2,0-0.4c0-4.9,0-9.8,0-14.7c0-0.3,0.1-0.6-0.1-0.9V152c-0.2-0.4-0.1-0.9-0.1-1.3
			c0-3.5,0-7,0.1-10.5c0.2-5-0.2-10-0.1-15.1c0-0.3,0-0.6-0.1-0.8v-4.7c-0.2-0.4-0.1-0.8-0.1-1.2c0-7.1,0-14.2,0-21.4
			c0-2.5,0-5,0-7.5c0-8.4,0.1-16.7-0.3-25.1c-0.1-1.9,0-3.8,0-5.6c-0.1-3.9,0.3-7.8-0.2-11.6c-0.2-1.5-0.7-2-2.2-2.2
			c-0.5-0.1-1.1,0.1-1.6-0.3c-1.2-0.7-2.5-0.9-3.8-0.9c-26.4-0.1-52.8,0.2-79.2-0.3c-2,0-3.9,0-5.9,0c-14.4-0.1-28.7,0.1-43.1-0.3
			c-3.6-0.1-7.1,0-10.7,0c-1.3,0-2.7,0.1-3.7-1c-0.2-0.2-0.5-0.2-0.7-0.1c0,0,0,0,0,0v0c0,1.7-0.7,3.4-0.7,5.1
			c-0.1,13.8,0.1,27.5-0.3,41.3c-0.4,15.3,0.1,30.6-0.2,46c-0.3,16.9,0,33.9-0.3,50.8c0,1.4,0,2.7,0,4.1c0,0.8-0.5,1.2-1.2,1.2h0
			c-0.1,0-0.2,0-0.2,0h0c-0.1,0-0.1,0-0.2,0c-0.5-0.1-0.9-0.4-1-1c0-0.3,0-0.5,0-0.8c-0.1-5.2,0-10.4-0.2-15.6c-0.4-8,0-16-0.3-24
			c-0.3-8.5-0.1-17-0.1-25.5c0-0.8,0.1-1.7,0-2.5c-0.1-0.5,0-1.2-0.5-1.6c-0.1-0.1-0.3-0.2-0.4-0.2c-0.2,0.7-0.3,1.5-0.3,2.3
			c0.2,14-0.2,28.1,0.2,42.1c0.3,7.6,0.1,15.3,0,22.9c0,2.3,0.7,3.8,2.1,5.7c1.8,2.3,3.5,2.6,6.1,2.6c22,0,44-0.1,66,0.1
			c25,0.3,50,0.1,75,0.1c1.3,0,2.4,0.2,3.6,0.8c1.3,0.7,2.7,0.7,3.9-0.1c0.8-0.5,1.3-1.2,1.6-2c0,0,0,0,0,0
			C348.3,193.2,348.4,192.5,348.3,191.8z M324,57.7c-0.4-1.3-0.5-2.8,0.2-4.1c0.9,0.2,1.1-0.8,1.8-1c1.9-0.4,3.7-0.5,5.6,0
			c0.4,0.5,0.9,0.7,1.4,1.1c1.3,0.9,2.3,2.1,2.5,3.8c0.5,1.5,0.2,2.9-0.1,4.4C331.4,64.9,325.4,63,324,57.7z"/>
		<path class="st22" d="M347.3,119.6c-0.4-0.5-0.3-1-0.3-1.6c0-6.8,0-13.6,0-20.3c0-1.9-0.2-3.8-0.4-5.7c-0.1-0.8,0.1-1.7,0.1-2.6
			c0-5.9,0.2-11.7,0-17.6c-0.4-7.6-0.1-15.2-0.2-22.8c0-0.9-0.1-1.7-0.3-2.6c-0.3-1.1-1.2-1.2-2.1-1c-0.6,0.1-1.1,0.1-1.6-0.3
			c-0.9-0.7-2-0.8-3.1-0.8c-22.6,0-45.1,0.1-67.7,0c-4.4,0-8.9-0.2-13.3-0.2c-12.6,0-25.2,0.1-37.9,0c-7.3-0.1-14.7-0.3-22-0.2
			c-1.4,0-2-0.9-2.8-1.7c-0.3,0.2-0.6,0.1-0.9,0c-0.4-0.3-0.7-0.6-1.2-0.8c-0.5-0.3-1-0.3-1.5,0c-0.5,0.3-1,0.8-1.6,0.9
			c-0.1,0-0.2-0.1-0.3-0.2c-0.1-0.2-0.1-0.4,0.1-0.5c0.3-0.3,0.5-0.5,0.8-0.8c0.9-0.6,1.9-0.9,3-0.8c2.2,1.5,4.7,1.5,7.2,1.5
			c24.9-0.1,49.8,0.1,74.7,0.1c20.8,0,41.5,0.1,62.3,0.1c1.1,0,2.1,0.1,3.1,0.2c0.7,0,1.5,0.2,2,0.8c1.1,1.1,2.5,1.9,3.8,3
			c0.1,0.1,0.2,0.3,0.3,0.5c0.2,3.8-0.1,7.7,0.1,11.5c0.5,11.9,0.1,23.8,0.3,35.8c0,0.4,0,0.7,0.1,1.1c0,0.5,0.2,1.1-0.2,1.5
			C347,103.8,347.4,111.7,347.3,119.6z"/>
		<path class="st23" d="M194.8,41.9c0.3,0.1,0.5,0.2,0.8,0.3c0.3,1,0.3,2,0,3c-0.2,0.6-0.3,1.3-0.3,2c0.2,23.4-0.4,46.9-0.3,70.3
			c0,4.4,0.1,8.8,0,13.2c-0.5,14.3,0,28.6-0.3,43c-0.1,5.3-0.1,10.5-0.2,15.8c0,1.3-0.7,1.7-1.7,1.9c-1.1,0.1-1.8-0.7-1.9-1.8
			c0,0,0-0.1,0-0.1c0.1-12-0.2-24-0.4-36c-0.2-10.4,0.1-20.9-0.2-31.3c0-0.9,0-1.8-0.5-2.6c0-2.6-0.5-5.2-0.3-7.8
			c0-0.2-0.2-0.5-0.3-0.7c-0.5-0.4-0.4-1-0.4-1.5c0-2.4,0.1-4.8,0.1-7.1c0.1-10.8,0-21.5,0-32.3c0.6-1.9,0.4-3.9,0.4-5.8
			c0-2.7,0-5.5,0-8.2c0-0.6-0.1-1.2,0.3-1.7c0.3-0.1,0.4,0,0.6,0.3c0.2,0.3,0.2,0.6,0.2,0.9c0.4,10.1,0.1,20.1,0.3,30.2
			c0.2,9-0.1,18.1,0.3,27.1c0.3,6.6,0.1,13.3,0.4,19.9c0.3,8.1,0,16.3,0.3,24.4c0.2,5.8-0.1,11.5,0.2,17.3c0.2,4.6,0.2,9.2,0.2,13.9
			c0,0.3-0.1,0.7,0.2,1.1c0.4-0.4,0.3-0.8,0.3-1.3c-0.2-13.1,0.4-26.3,0.3-39.4c-0.1-10.5,0.4-20.9,0.4-31.4c0-4.7,0.1-9.4,0.1-14.1
			c0.1-18.6,0.4-37.1,0.3-55.7c0-0.6,0-1.3,0.3-1.9c0.6-1,0.8-2.1,0.5-3.3C194.8,42,194.8,41.9,194.8,41.9z"/>
		<path class="st18" d="M189.6,69.9c0,13.6,0.1,27.3-0.3,40.9c-0.6,20.9-0.2,41.9-0.2,62.8c0,5.2-0.1,10.4,0.3,15.6
			c0.2,2.8,0.5,5.7,3.3,7.5c1.1,0.7,2.4,0.9,3.7,0.9c22.6,0,45.1,0,67.7,0c24.9,0,49.8,0,74.7,0c2.1,0,4-0.8,6.1-0.6
			c-1.3,0.9-2.7,1.4-4.2,1.4c-48.4,0-96.8,0-145.2,0c-3.1,0-6-2.8-6.4-5.9c-0.3-2.2-0.2-4.4-0.2-6.6c0-21.9,0.2-43.9-0.1-65.8
			c-0.3-24.6,0-49.2-0.2-73.9c0-1.3,0.2-2.5,0.8-3.7c0.2-0.1,0.3,0,0.4,0.1c0.1,0.1,0.1,0.3,0.1,0.4c-0.4,1.8-0.2,3.6-0.2,5.4
			c0,6.4-0.1,12.8-0.1,19.3C189.6,68.5,189.3,69.2,189.6,69.9z"/>
		<path class="st24" d="M193.7,40.2c-1-0.2-1.9,0.3-2.7,0.5c0.4-0.8,1.3-0.6,1.9-1.1c0.1,0,0.2,0,0.3,0c1.4-0.2,2.8,0.3,4.2,0.3
			c47.3,0,94.5,0,141.8-0.1c3.8,0,6.4,1.4,8,4.8c0.2,0.4,0.4,0.7,0.7,1c0.6,16.7,0.1,33.5,0.3,50.2c0,0.6,0.2,1.2-0.3,1.7
			c-0.1-0.6,0.2-1.2-0.3-1.6c0-0.5,0-0.9,0-1.4c-0.3-1.9-0.1-3.8-0.1-5.7c-0.1-8.1-0.2-16.3,0-24.4c0.1-5.9-0.4-11.9-0.3-17.8
			c0-0.2,0-0.5-0.1-0.7v0c-1.1-1.3-2.5-2.4-3.9-3.4c-1.5-1.1-3.3-0.8-5.1-0.8c-15.9,0-31.8,0.1-47.7-0.1
			c-16.6-0.2-33.1,0.1-49.7-0.1c-13.5-0.2-26.9-0.1-40.4-0.1C198,41.5,195.8,41.3,193.7,40.2z"/>
		<path class="st22" d="M347.3,175.6c0.4-5.7,0.3-11.4,0.3-17c0.3,0.3,0.3,0.8,0.3,1.2c-0.2,7.8,0.5,15.7,0.3,23.5
			c0,1.2,0.3,2.5-0.3,3.6c-0.4-0.4-0.3-0.9-0.3-1.4c0-2.5,0-5,0-7.5c0-0.6,0-1.2-0.3-1.7C347.1,176,347.1,175.8,347.3,175.6z"/>
		<path class="st22" d="M347.6,152c-0.4-0.5-0.3-1.1-0.3-1.7c0-8.7,0-17.4,0-26c0.2,0.2,0.3,0.6,0.3,0.9c-0.1,5.1,0.6,10.2,0.2,15.3
			C347.5,144.4,347.7,148.2,347.6,152z"/>
		<path class="st24" d="M189.6,42.7c-0.1,0-0.2,0-0.3,0c0.2-0.4,0.4-0.9,0.8-1.1c0,0.2,0,0.4,0,0.5
			C190.3,42.6,190.1,42.8,189.6,42.7z"/>
		<path class="st19" d="M347.9,45.7c-0.8-0.5-1.2-1.4-1.7-2.1c-1.5-2.3-3.7-3.4-6.4-3.4c-47.2,0-94.3,0-141.5,0
			c-1.8,0-3.4-0.3-5.2-0.6c0.2-0.2,0.5-0.3,0.7-0.2c2.2,0.4,4.4,0.2,6.6,0.2c46.4,0,92.7,0,139.1-0.1
			C343.6,39.6,346.7,41.7,347.9,45.7z"/>
		<path class="st25" d="M347.3,175.6c0,0.2,0,0.4,0,0.5c0.1,4.9-0.3,9.9,0.3,14.8c-0.8,0.1-1.1-0.5-1.3-1.1
			c-0.1-0.4-0.1-0.8-0.1-1.2c-0.1-10.3-0.2-20.7-0.4-31c-0.1-7.2,0.1-14.5-0.3-21.7c-0.3-5.9,0.1-11.7-0.3-17.6
			c-0.3-4.9-0.1-9.7-0.2-14.5c0-0.4-0.1-0.8-0.1-1.2c0.2,1.2,0.1,2.4,0.1,3.6c0,3.5,0.1,7,0,10.4c-0.5,10.4,0.1,20.9-0.3,31.3
			c-0.4,13.3-0.1,26.5-0.2,39.8c0,1.4,0,2.8-1.2,3.9c-1.1,1.1-0.4,2.3-0.2,3.4c-1.4-0.7-1.9-1.8-1-3.1c1-1.5,1-3.1,1-4.7
			c0-6.9-0.1-13.8,0-20.7c0.4-15.1,0-30.3,0.3-45.4c0.3-11.4-0.1-22.9,0.3-34.3c0.3-9.1,0-18.2,0.3-27.3c0.1-4.1,0.6-8.2,0.5-12.3
			c0-0.3-0.1-0.9,0.4-0.9c0.6,0,0.4,0.6,0.4,1c0,2.5-0.2,5.1,0.1,7.5c0.8,7.5,0.3,15.1,0.6,22.6c0.1,3.1,0.2,6.1,0.2,9.2
			c0,11.6,0.2,23.1,0.4,34.7c0.1,8.4-0.1,16.8,0.2,25.2c0.4,9.2,0.1,18.5,0.2,27.7C347,174.8,346.9,175.3,347.3,175.6z"/>
		<path class="st26" d="M252.2,155.2c-0.1,6.6-2.6,12-7.7,16.3c-1.5,1.3-3.2,2.2-4.9,3.1c-0.2,0.1-0.4,0.3-0.6,0.3
			c-1.6-0.2-3,0.6-4.5,1c-2.3,0.6-4.6,0.4-6.8-0.3c-1.4-0.4-2.9-0.3-4.2-0.9c-4.8-2.4-8.6-6-10.9-10.7c-1.8-3.5-2.1-7.4-1.6-11.3
			c0.6-4.1,2.5-7.7,5.1-10.9c2.5-3,5.8-4.8,9.5-6.1c5-1.8,9.7-0.9,14.3,0.8c3.3,1.3,6.2,3.6,8.4,6.6c2.1,2.8,3,5.9,3.9,9.1
			C252.4,153.2,252.2,154.2,252.2,155.2z"/>
		<path class="st27" d="M343.2,195.2c-1.1-1.5-1.2-2.2,0-3.8c0.7-0.9,0.8-1.7,0.8-2.8c0-8.9-0.1-17.8,0-26.6
			c0.2-14.2,0.1-28.5,0.3-42.7c0.1-5.7,0.1-11.4,0.2-17.1c0-0.7,0.2-1.4,0.7-2.1c0.1,1.3,0.4,2.6,0.4,4c-0.1,8.2,0.3,16.5,0.4,24.7
			c0.1,8.3,0,16.7,0.3,25c0.3,6.7,0,13.4,0.2,20.2c0.1,5.2,0.4,10.4,0.3,15.6c0,0.7,0.2,1.3,0.8,1.6c0.6,1.7-0.1,3-1.3,4.1
			C345.3,196.2,344.2,195.7,343.2,195.2z"/>
		<path class="st26" d="M288.5,151.5c-0.1-1.2,1.1-1.5,1.4-2.5c0.8-2.8,2-5.3,4.4-7.2c0.5-0.4,0.4-1.2,0-1.6
			c-0.5-0.5-0.8,0.3-1.1,0.5c-3.3,2.8-5.4,6.4-6.4,10.6c-0.1,0.3-0.2,0.5-0.6,0.6c-0.5-1.5,0.4-2.7,0.9-4c1.4-3.4,3.5-6.5,6.4-8.7
			c2-1.5,4.2-2.7,6.6-3.4c1.9-0.5,3.7-1.1,5.6-1c4.1,0.3,7.9,1.1,11.6,3.2c3.2,1.9,5.2,4.7,7.2,7.5c1,1.4,1.3,3.3,1.8,5
			c0.6,1.7,0.6,3.5,0.8,5.2c0.1,1.1-0.3,2.2-0.5,3.2c-1.2,6-4.5,10.7-9.4,14.2c-1.5,1.1-3.2,2.3-5.4,2.1c-0.9-0.1-1.5,0.6-2.3,0.8
			c-3.2,0.9-6.2-0.1-9.3-0.7c-3.9-0.7-6.6-3.2-9.2-5.8c-1.5-1.5-2.8-3.1-3.7-5c-1.8-3.4-2.2-7.1-1.9-10.9c0.1-0.9,0.3-0.9,1.1-0.4
			c0.4,0.3,0.2-0.2,0.3-0.3c0.5-0.4,0.9-1,1.6-1.2c1,1,1,1.5,0.2,2.1c-2.1,1.6-2.4,2.3-1.7,4.9c0,0.4,0.2,0.7,0.3,1
			c0.6,1.6,0.9,3.3,1.8,4.9c3.7,6.7,9.4,9.9,16.9,10.3c0.8,0,1.6-0.1,2.3,0.1c2.1-0.2,4-0.9,5.9-1.8c2.3-0.7,2.1-1.6,2-4.1
			c-0.1-1.3-0.4-2.5,0.4-3.8c0.4-0.6,0.2-1.7,0.2-2.5c0-2.3,2.7-5,5.2-5.2c3-0.3,4.1-2.2,3.4-5.2c-0.5-2-1.1-3.9-2-5.8
			c-1.5-2.2-3.3-4.2-5.2-6.2c-1.5-1.1-2.9-2.3-4.8-2.6c-0.4,0-0.8-0.1-1.2-0.3c-1.5-1.1-3.3-0.8-4.9-1.2c-0.7-0.3-1.3-0.3-2,0
			c-2.6,0.3-5.1,0.6-7.3,2.1c-2.1,1.1-2.6,1.8-2.1,4.1c0.4,2.1-0.8,3.5-1.5,5.1c-0.4,1-0.9,2-1.3,3
			C292.3,152.1,289.9,152.6,288.5,151.5z"/>
		<path class="st26" d="M210.7,80.9c0.1-7,3.1-12.7,8.5-16.8c4.5-3.4,9.7-4.9,15.5-3.8c3.4,0.7,6.7,1.8,9.5,3.9
			c1.3,1,2.4,2.3,3.5,3.5c2.6,2.8,3.7,6.3,4.5,9.9c0.4,1.9,0.3,4,0,6c-0.8,4.5-2.9,8.4-6,11.8c-2.1,2.3-4.7,3.8-7.5,4.7
			c-1.9,0.6-3.9,1.2-5.9,1.5c-0.9,0.2-1.9,0-2.8-0.2c-2.7-0.8-5.5-0.8-8-2.4c-3.8-2.5-7-5.5-9.1-9.6
			C211.2,86.8,210.7,83.9,210.7,80.9z"/>
		<path class="st15" d="M312.4,99.8c-0.7,0-1.4,0.1-1.9,0.5c-0.9,0.3-1.8,0.7-2.8,0.5c-0.6-0.4-0.2-0.8,0.2-1
			c0.3-0.2,0.7-0.2,0.9-0.5c0.1-0.1,0.2-0.2,0.3-0.2c0.9-0.5,1.9-0.8,2.8-1c1-0.2,1.5-0.6,1.7-1.7c0.2-1.2,0.6-2.4-0.3-3.5
			c-0.3-0.3-0.1-0.8-0.3-1.2c0-0.1,0-0.2,0-0.4c0-0.3,0-0.6-0.1-0.8c0-0.1-0.1-0.2-0.1-0.3c-0.2-0.4-0.4-0.6-0.9-0.4
			c-0.4,0.1-0.8,0.4-1.2,0.5c-6.1,3.2-13.6-0.7-14.6-7.5c0.1-0.6,0.1-1.1-0.2-1.6c-0.2-0.5-0.3-1-0.5-1.5c-0.2-0.5-0.7-0.6-1.1-0.4
			c-1.1,0.5-2.2,0.9-2.9,1.8c-0.7,0.8-1.5,1.3-2.4,1.6c-0.8,0.2-0.9,0.6-0.9,1.4c0.1,0.9,0.6,2-0.8,2.5c-1-0.8-0.9-2.1-1.2-3.2
			c0-2.4,1.4-3.8,3.5-4.7c1.7-0.7,3.4-1.3,5.1-2c0.7-0.3,1.2,0.1,1.8,0.5c0.6-1.3,1.2-2.5,2.2-3c-0.6,0.5-1.1,0.7-1.5,0.3
			c-0.7-0.6-0.3-1.3,0.1-1.8c0.4-0.6,0.6-1.3,0.7-2c0.3-1.9,0.7-3.8,0.4-5.8c-0.2-1.2,1-2.7,2.4-3.2c2-0.7,4.1-0.9,6.2-0.8
			c2.2,0.1,4.4,0.7,6.6,1c2.4,0.4,4.1,2.2,5.9,3.6c1.9,1.4,3.4,3.3,4.5,5.4c0.4,1.3,0.7,2.6,1.2,3.9c0.4,1,0,2-0.1,3
			c0,0.4-0.3,0.6-0.7,0.8c-1,0.4-1.6,1.1-2.2,1.9c-0.8,1.1-2.3,1.3-3.3,2.1c-0.6,0.5-1.3,1.2-2.3,0.8c-0.4-0.1-0.4,0.4-0.5,0.7
			c-0.5,1.1-0.9,2.2-1.7,3.3c0.7,0.2,0.9,0.7,1.1,1.4c0.5,1.9-0.2,3.9,0.7,5.9c0.7,1.5,0,3-1.2,4.2
			C314.1,99.5,313.4,100.1,312.4,99.8z"/>
		<path class="st26" d="M286.6,83.3c0,1.2,0.4,2.2,0.8,3.3c0.9,1,1.2,2.4,1.8,3.6c1.9,3.5,4.6,6,8.2,7.7c2.7,1.4,5.6,2.2,8.7,2.2
			c0.5,0,1,0,1.4,0.5c1-0.1,2-0.2,3-0.3c-1.2,1-2.7,1.3-4.2,1.3c-2,0-3.9-0.8-5.9-1.1c-3.6-0.6-6.1-2.9-8.6-5.2
			c-2.5-2.3-4.3-5-5.4-8.3c-0.9-2.6-1.1-5.2-0.9-8c0-0.7,0.1-1.5,1.2-1.4c0.3,0,0.4-0.2,0.4-0.4c0-0.2,0.1-0.6,0.2-0.6
			c1.5-0.6,2.2-2.4,3.9-2.7c1-0.2,1.7-0.7,2.1-1.7c0.4-1.1,1.3-1.9,1.5-3c0.1-0.4,0.3-0.9,0.1-1.3c-0.4-0.7-0.3-1.2,0.4-1.7
			c0.7-0.5,0.3-1.2,0.1-1.9c-2,1-3.6,2.4-4.9,4.2c-0.4,0.6-0.7,1.2-1.1,1.7c-0.1,0.2-0.3,0.6-0.6,0.4c-0.3-0.2-0.2-0.5,0-0.7
			c0.5-0.7,0.9-1.5,1.5-2.1c1.5-1.8,3.1-3.5,5.3-4.6c1.9-1,3.7-2,5.9-2.5c3-0.7,5.9-0.8,8.9,0c0.7,0.2,1.3,0.3,2,0.5
			c4.5,1.3,8,3.9,10.7,7.7c2.4,3.3,3.4,7,3.9,11c0.2,1.7-0.1,3.3-0.4,4.9c-0.1,0.5-0.2,1.2-0.8,1c-0.5-0.1-0.1-0.7-0.1-1.1
			c0.1-0.5,0.1-1,0.2-1.5c0.1-0.5,0.3-1.3-0.3-1.4c-0.6-0.1-1.5,0.1-1.7,0.9c-0.2,0.8-0.6,1-1.4,1.2c-1.6,0.5-3.5,3.2-3.6,5
			c0,0.7,0.2,1.3,0.7,1.9c0.5,0.6,0.7,1.2-0.3,1.6c-0.3,0.1-0.6,0.4-0.4,0.6c0.6,1.2,0,2.3,0.1,3.5c0.1,1.2-1.1,1.8-1.9,2.2
			c-1.1,0.5-2.1,1.2-3.3,1.7c-0.6,0.2-1.1,0.5-1.5-0.3c0.7-0.4,1.5-0.7,2.2-1.1c0.5-0.3,0.8-0.7,1.3-1c1-0.7,1.1-1.5,1.1-2.7
			c0-1.8-1-3.7,0-5.5c0.1-0.1,0.1-0.3,0-0.4c-0.8-2.2,0.8-3.7,1.8-5.3c0.1-0.2,0.3-0.5,0.6-0.6c1.6-0.4,2.6-1.7,4-2.3
			c1.2-0.5,2-2.2,1.9-3.5c-0.1-2.2-1.1-4.1-1.6-6.1c-1.4-1.8-2.6-3.8-4.5-5.2c-1.8-1.3-3.4-3-5.6-3.6c-3.8-1.1-7.6-1.7-11.5-0.8
			c-1.7,0.4-3.4,1-4.2,2.8c-0.3,0.6-0.3,1.1-0.2,1.7c0.3,1.5,0.2,3.2-0.4,4.4c-0.7,1.6-1.6,3.4-3.2,4.5c-0.1,0.1-0.3,0.1-0.4,0.2
			c-1,1.5-2.2,2.3-4.2,2.2c-0.7,0-1.9,1.1-2.3,2.1C286.7,80.8,286.1,82,286.6,83.3z"/>
		<path d="M336.2,59.7c0,0.1,0,0.2,0,0.3c-0.1,0.6-0.2,1.3-0.7,1.8c0.3-1.5,0.6-2.9,0.1-4.4c-0.2-1.7-1.2-2.9-2.5-3.8
			c-0.5-0.3-1-0.6-1.4-1.1c-1.9-0.5-3.7-0.4-5.6,0c-0.7,0.2-0.9,1.2-1.8,1c1.3-1.8,3.3-1.7,5.2-1.8c0.8,0,1.6,0.2,2.3,0.5
			c0,0,0,0,0.1,0c0,0,0.1,0,0.1,0.1c0.8,0.6,1.7,1,2.4,1.7c0.8,0.9,1.4,1.9,1.7,3c0,0.1,0,0.2,0,0.3c0,0,0,0.1,0,0.1
			c0,0.1,0,0.2,0,0.3c0,0.2,0.1,0.5,0.1,0.7C336.2,59,336.2,59.4,336.2,59.7z"/>
		<path class="st18" d="M288.5,151.5c1.2,0.7,2.3-0.2,3.4-0.2c0.4,0,0.4-0.4,0.5-0.8c0.4-1.8,1.3-3.4,2.3-4.9
			c0.8-1.3,0.8-2.4,0.4-3.7c-0.3-1.2,0.9-3.1,2.5-3.9c0.4,0.6,0.1,1.1-0.2,1.5c-0.7,0.7-0.7,1.4-0.5,2.3c0.8,3.5-0.4,6.6-2.4,9.3
			c-0.9,1.2-2.4,2.1-3.8,2.8c-0.9,0.5-1.7,1.2-2.5,1.8c-0.7,0.5-1.1,1.3-1.1,2.2c0,0.4-0.1,0.7-0.4,1c-0.5-1.1-0.4-2.2-0.1-3.3
			c0.2-1.1,0.9-1.8,2.1-2.2c1-0.3-0.4-1,0-1.6C288.5,151.7,288.5,151.6,288.5,151.5z"/>
		<path class="st28" d="M326.2,50.4c0.9-2.3,2-2.8,4.5-2.8c2,0,3.8,0.2,5.6,1.3c2.7,1.6,4.8,7.2,2.5,9.9c-0.3,0.4-0.5,0.7-1,0.6
			c-0.5-0.7,0-1.2,0.3-1.8c0.6-2.5,0.1-5.4-2.3-7.2c-2.2-1.6-4.6-2.1-7.2-0.8C327.6,49.8,327.2,50.9,326.2,50.4z"/>
		<path class="st29" d="M338.2,57.8c-0.2,0.5-0.4,1.1-0.6,1.6c-0.2,0.2-0.3,0.4-0.5,0.6c-0.1-0.1-0.2-0.2-0.3-0.3
			c-0.1-0.2-0.1-0.4,0-0.6c1-2.8,0-5.1-1.9-7.1c-2.2-1.9-4.8-1.6-7.4-1.1c-0.4,0.1-0.8,0.4-1.3,0.3c-0.1,0-0.3-0.1-0.3-0.2
			c0.1-0.2,0.2-0.4,0.3-0.5c0.8-0.2,1.3-0.7,1.9-1.1C333.6,47,339.6,51.4,338.2,57.8z"/>
		<path class="st30" d="M337,58.7C337,58.6,337,58.6,337,58.7C337,58.6,337,58.6,337,58.7c0,0.2,0.1,0.3,0.2,0.5
			c1.1-2.6,0.4-5.4-1.9-7.4l0,0h0c0,0-0.1,0.1-0.1,0.1c0,0.1,0,0.2,0,0.2c0,0.5,0.3,0.9,0.6,1.3c-0.5-0.5-0.8-1.5-1.8-0.9
			c0,0,0,0,0,0.1c0,0,0,0.1,0,0.1c0,0,0,0.1,0,0.1c0,0,0,0.1,0,0.1c0.7,1.6,2.1,2.8,2.5,4.5c0,0,0,0.1,0,0.1c0,0,0,0,0,0.1
			c0,0.1,0,0.1,0,0.1c0,0.1,0,0.2,0,0.2c0-0.1,0-0.1,0-0.2v0c0-0.1,0-0.1,0-0.2c0,0,0,0,0-0.1c-0.1-0.2-0.2-0.3-0.2-0.3
			c-0.1-0.1-0.3,0-0.4,0.3c0.5,1.5,0.2,2.9-0.1,4.4c0.8-0.4,1.3-1.1,1.7-1.9c0-0.1,0-0.3-0.1-0.4C337,59.3,337,59,337,58.7z
			 M336.3,58.2c0,0,0-0.1,0-0.1v0C336.3,58.1,336.3,58.1,336.3,58.2z"/>
		<path class="st31" d="M332,51.9C332,51.9,332,51.9,332,51.9c0,0,0,0.1,0,0.1c0,0.1-0.1,0.3-0.1,0.4c-0.1,0.1-0.2,0.2-0.3,0.2
			c-1.9-0.5-3.7-0.4-5.6,0c-0.7,0.2-0.9,1.2-1.8,1c0.1-1.2,0.9-2,1.7-2.7c0.1,0,0.2,0,0.3,0c0.3,0.1,0.6,0.1,0.9,0.1
			c0.5,0,1-0.2,1.5-0.2C329.9,50.7,331.1,50.9,332,51.9z"/>
		<path class="st24" d="M193.7,40.2c3.4,1.2,7,0.8,10.5,0.8c27.2,0,54.5-0.2,81.7,0.1c18.3,0.2,36.6,0,54.9,0.2
			c1.4,0,2.6,0.4,3.5,1.5c0.9,1.1,2.2,1.8,2.8,3.2c-1.3-0.9-2.6-1.7-3.8-2.7c-1.5-1.3-3.5-1-5.3-1.1c-3.1-0.2-6.3,0-9.5,0
			c-28.9,0-57.9,0.2-86.8-0.1c-14.6-0.1-29.3,0-43.9-0.2C196.2,41.9,195.1,40.8,193.7,40.2z"/>
		<path class="st24" d="M347,46c0.1,0.2,0.3,0.4,0.3,0.6c-0.1,5.1,0.9,10.2,0.6,15.3c-0.6,8.9-0.2,17.9-0.2,26.9
			c0,1.9,0,3.9-0.1,5.8c-0.4-0.5-0.3-1-0.3-1.6c0-4-0.1-8,0-11.9C347.5,69.4,346.9,57.7,347,46z"/>
		<path class="st21" d="M189.6,42.7c0.2-0.2,0.4-0.4,0.5-0.5c0.1,0,0.2,0,0.3,0c0.2,0.1,0.2,0.3,0.2,0.6c-0.2,0.8-0.8,1.4-0.6,2.3
			c0,0.5,0.2,0.9,0.3,1.3c-0.1,2.1,0.2,4.1,0.1,6.1c0,0.6,0.1,1.3-0.5,1.7c0,3.7,0,7.4,0,11.1c0,1.5,0,3.1-0.3,4.6
			c-0.4-0.5-0.3-1-0.3-1.6c0-6.3,0-12.6,0-18.9c0-1.4-0.4-2.8-0.3-4.2C189.2,44.3,189.7,43.6,189.6,42.7z"/>
		<path class="st23" d="M190.4,42.7c0-0.2,0-0.4,0-0.5c0.3-0.5,0.9-0.7,1.4-1.1c0.2-0.2,0.4-0.1,0.6-0.1
			C192.3,42.1,191.5,42.6,190.4,42.7z"/>
		<path class="st21" d="M192.4,41c-0.2,0-0.4,0-0.5,0c0.6-0.5,1.3-0.7,1.9,0c-0.1,0.1-0.2,0.2-0.3,0.3C193,41.4,192.6,41.4,192.4,41
			z"/>
		<path class="st23" d="M193.5,41c0.1,0,0.2,0,0.3,0c0.5,0,0.9,0.4,1.1,0.8v0C194,42.2,193.5,42,193.5,41z"/>
		<path class="st32" d="M193.5,41c0.3,0.5,0.8,0.7,1.4,0.8c0.8,1.1,0.6,2.2,0,3.2c-0.4,0.7-0.6,1.5-0.6,2.4
			c-0.1,25.1-0.2,50.2-0.3,75.4c0,2.1,0.1,4.1,0,6.2c-0.5,12.3,0,24.7-0.3,37.1c-0.2,7.7-0.1,15.4-0.2,23c0,0.3,0,0.6,0,0.8
			c0,0.4-0.3,0.7-0.7,0.6c-0.4,0-0.8-0.1-0.8-0.6c0-0.3,0-0.5,0-0.8c0.1-9.6-0.2-19.1-0.4-28.7c-0.1-6.9,0.1-13.7-0.2-20.6
			c-0.4-6.8,0-13.5-0.2-20.3c-0.4-9-0.1-17.9-0.3-26.9c0-1.5-0.2-3-0.5-4.5c-0.2-1.1,0.2-2.1,0.2-3.1c0-7.4,0.1-14.8-0.1-22.2
			c-0.1-2.6-0.2-5.2-0.2-7.8c0-0.3,0-0.6-0.3-0.9c0-2.7,0-5.5,0-8.2c-0.2-0.3,0-0.8-0.3-1.1c0-0.9,0.3-1.6,0.8-2.2
			c0.6-0.5,1.3-1.1,1.9-1.6C192.7,41,193.1,41,193.5,41z"/>
		<path class="st16" d="M237.7,136.9c3.1,1.5,6.4,2.8,8.5,5.7c1,1.4,2,2.8,3,4.2c0.5,1.7,1.1,3.4,1.5,5.2c0.5,2.2,0,3.6-2,4.6
			c-1,0.5-1.6,1.4-2.8,1.5c-0.7,0-1.4,0.1-2-0.1c-0.9-0.2-2.1,0.1-2.2-1.3c0.3-0.6,0.8-0.5,1.3-0.5c1.2,0.1,2.2-0.2,2.8-1.4
			c0.3-0.7,0.9-1.3,1.4-1.9c1.2-1.6,1.3-3.4,0.6-5.2c-1.2-3.1-3.3-5.4-6.5-6.8c-2.4-1.1-5.1-1.4-7.3-2.9c-0.4-0.3-1-0.2-1.5-0.2
			c-1.3,0.1-2.6,0.2-4,0.2c-1.3,0-3.3,2.1-3.3,3.4c0,0.5-0.1,1-0.3,1.5c-0.1,0.3-0.2,0.5-0.3,0.8c-0.2,1.2-0.3,2.4,0.8,3.1
			c1,0.6,1.7-0.4,2.5-0.9c6.2-2.7,12.3,1.9,13.5,6.7c0,0.7,0.4,1.4-0.1,2.1c-1.1,0.3-0.8-0.9-1.4-1.2c-0.8-2.4-2.3-4-4.5-5.3
			c-3.5-2.1-6.7-1.2-9.7,1.1c-0.3,0.2-0.5,0.5-0.8,0.7c-0.6,0.1-0.9,1.4-1.8,0.6c-0.2-0.4,0-0.7,0.3-0.9c0,0,0,0,0,0s-0.1,0-0.1,0.1
			c-1.1,0.3-1.7-0.4-1.4-1.2c0.9-2.4-0.1-4.7-0.2-7c-0.1-2.6,0.4-3.3,2.9-4.2C229,135.6,233.3,135.8,237.7,136.9z"/>
		<path class="st13" d="M232.7,175.4c-3.6,0.3-7.1-0.5-10.3-2.2c-3.4-1.7-6.2-4.3-8.1-7.7c-0.5-0.9-1.2-1.7-1.4-2.8
			c0-0.7-0.2-1.3-0.4-2c-0.6-1.7,0-2.6,1.7-3.2c1.8-0.6,3.6-1.4,5-2.7c1.1-1,2-0.9,2.7,0.4c0.3,0.5,0.5,1,0.3,1.6
			c-1.4,0.4-2.9,0.4-4.3,1c-1.6,0.3-2.3,1.4-2.5,2.9c-0.1,0.3,0,0.7-0.2,0.9c-1.1,1.1-0.4,1.9,0.3,2.8c0.6,0.8,1,1.6,1.6,2.4
			c1.7,2.2,4.1,3,6.5,3.8c1.6,0.5,3.2,1.3,5,1.1c1-0.1,1.9,0.4,2.7,1.1c1.2,0.9,1.6,0.8,2-0.6c0.2-0.7,0.6-1.2,1.2-1.4
			c1-0.5,1.6-1.1,1.5-2.3c0-0.1,0-0.3,0.1-0.4c0.8-1.2,0.6-2.5,0.5-3.8c0.8-0.9,1.4-0.8,1.7,0.2c0.6,1.8,0.5,3.7,0,5.5
			c-0.2,0.7-0.5,1.5-0.5,2.2c0,1-0.5,1.4-1.3,1.8C235.3,174.7,233.9,174.6,232.7,175.4z"/>
		<path class="st33" d="M223.7,149.3c-0.1,0.4-0.2,0.7-0.3,1.1c-0.1,1.1-0.8,2.1-1,3.2c-0.1,0.5-0.6,0.8-1.1,0.5
			c-1.5-0.9-2.6,0-3.5,0.8c-1.2,1.1-2.4,2.1-4,2.4c-0.8,0.2-1,1.2-2,1.1c-0.4-1.1,0.2-2.7,1.1-3.2c1.2-0.7,2.3-1.7,3.7-2.2
			c0.3-0.1,0.6-0.3,0.5-0.7c0-0.3,0.1-0.6,0.4-0.6c1.4,0.3,1.5-0.7,1.8-1.7c0.4-1.5,1.5-2.8,0.9-4.4c-0.1-0.2,0.1-0.5,0.3-0.6
			c1.4-0.7,0.8-1.4,0.3-2.4c-1.2-2.2,0.2-4.4,2.9-5.4c3.8-1.4,7.7-1.7,11.7-1.1c0.8,0.1,1.6,0.3,2.3,0.8c-2.4-0.2-4.8-0.6-7.2-0.6
			c-2.4-0.1-4.4,0.9-6.6,1.4c-1,0.3-1.2,1.4-2,2c-0.1,0.1-0.1,0.3,0,0.4c1,0.6,0.4,1.7,0.5,2.5c0.1,0.8,0.2,1.5,0.5,2.1
			c0.7,1.2-0.2,2.2-0.4,3.3C222.2,149.2,222.3,149.5,223.7,149.3z"/>
		<path class="st33" d="M244,157.5c1.7,0.7,2.9-0.4,4.1-1.2c0.2-0.1,0.3-0.3,0.4-0.3c0.5-0.3,1.3,0,1.4-0.8c0.2-1.1,0.9-2.2,0.4-3.5
			c-0.6-1.6-0.8-3.3-1.2-4.9c1.3,2.4,1.9,5,2.2,7.7c0.2,1.7-1.8,3.4-3.5,3.5c-0.8,0.1-2,0.1-2.3,1.3c-0.1,0.4-0.3,0.8-0.8,0.9
			c-1.5,0.5-1.6,1.7-1.6,3c0.1,1.2,0.1,2.1-1.2,2.7c-1.3,0.7-0.8,2.1-0.6,3.2c0.1,0.5,0.6,0.9-0.3,1.1c-0.2,0-0.2,0.3-0.1,0.5
			c0.8,2-0.9,2.4-1.9,3.3c-0.5-0.2-0.7-0.7-0.5-1.1c0.9-1.9,0.5-3.9,0.3-5.9c-0.1-1.1,0-2,1-2.6c0.3-0.2,0.6-0.5,0.3-0.9
			c-0.3-0.4-0.6-0.2-1-0.1c-0.4,0.2-0.9,0.7-1.3,0.1c-0.3-0.5,0.2-0.9,0.5-1.3c1-1.1,1.7-2.4,2.2-3.9c0.1-0.2,0.3-0.4,0.4-0.6
			c0.2-0.1,0.5-0.3,0.6-0.2C242.5,158.5,243.2,158,244,157.5z"/>
		<path class="st21" d="M219.2,140c0.3,1.2,0.1,2.1-0.7,2.8c-0.6,0.4-0.7,0.9-0.2,1.6c0.9,1.1,0.5,2.8-0.7,4.3
			c-0.3,0.4-0.7,0.7-0.8,1.2c-0.3,0.9-0.8,1.5-1.9,1.1c-0.6-0.2-1.2,0.1-1,0.8c0.2,0.8-0.1,1.1-0.7,1.4c-0.5,0.2-0.9,0.5-1,1.2
			c0,0.3-0.3,0.4-0.6,0.3c-0.3-0.1-0.5-0.4-0.3-0.7c1.2-1.9,1.1-4.2,2-6.3C214.5,144.7,216.6,142.3,219.2,140z"/>
		<path class="st21" d="M251.2,158.2c-0.8,5.7-3.6,10.1-8.2,13.5c-0.2-1.6,0-2.9,1.3-3.9c0.8-0.6,1.7-1.5,0.6-2.6
			c-0.1-0.1-0.2-0.5-0.2-0.6c1.1-1.3,1-3.5,3.1-4.1c1.2-0.3,1.4-1.9,2.8-2C250.7,158.5,250.9,158.4,251.2,158.2z"/>
		<path class="st16" d="M241,158.3c-0.4,2-1.7,3.4-3,4.9c0.6,0.3,0.7-0.1,0.8-0.4c0.4-0.7,1-0.3,1.5-0.3c0.6,0,0.5,0.8,0.7,1.2
			c0.2,0.5-0.4,0.6-0.8,0.8c-0.9,0.4-1.1,1.1-1,2c0.3,2.2,0.9,4.4-0.4,6.5c-0.2,0.3,0,0.6,0.2,0.9c-2.1,0.6-4.1,1.5-6.3,1.4
			c0.4-0.7,0.9-1.2,1.8-1.1c0.9,0.1,1.8-0.5,2.5-0.9c0.6-0.4,0.3-1.5,0.3-2.3c0-0.2-0.2-0.6-0.1-0.6c1.8-1.5,0.4-3.4,0.8-5.1
			c0-0.1,0-1.8-1.2-0.8c-0.6,0.3-1.3,0.8-2,0.3c-0.1-0.3,0-0.5,0.1-0.8c0.3-0.5,0.8-0.8,1.2-1.1c3-1.8,4.2-4.5,4-7.9
			c0-0.6-0.3-1.3,0.3-1.8c0.3,0.5,0.5,1.1,0.8,1.6c0.1,0,0.1,0.1,0.2,0.1c0.3,0.4,0.3,0.9,0.4,1.4c0,0.1,0,0.1,0,0.2
			c0.2,1.4,1.5,0.7,2.2,1.1c-0.2,0.5-0.5,0.8-1,1.1c-0.8,0.3-1.4,0.6-1.3-0.7c0-0.3-0.3-0.1-0.4-0.1C241,157.9,241,158.1,241,158.3z
			"/>
		<path class="st16" d="M235.2,164.1c-0.1,0.2-0.2,0.4-0.3,0.5c-0.1,0.3-0.3,0.5-0.6,0.7c-3.7,1-6.9,0.2-9.7-2.3
			c-0.3-0.3-0.6-0.6-0.9-0.8c-0.7-0.9-1.4-1.8-1.6-3c-0.2-0.7-0.9-1.4-0.1-2.2c0-0.6-0.2-1.1-0.5-1.5c-0.9-1.3-1-1.3-1.9,0
			c-0.5,0.6-1.2,0.8-1.9,1c-1.3,0.5-2.3,1.5-3.8,1.7c-1.2,0.1-1.7,1.4-1.1,2.8c0.2,0.6,0.4,1.2,0.1,1.8c-0.5-1.4-1.2-2.8-1.1-4.4
			c0.5-1.6,2.1-1.6,3.3-2.1c1.8-0.8,2.8-2.6,4.9-3.1c1-0.3,1.4-0.2,1.6,1.1c0.9-1.3,0.7-2.9,1.8-3.8c0.7,0.1,0.8-0.7,1.4-0.8
			c0.4,0.5,0,0.9-0.2,1.4c-2.9,4.5-1,10.5,4,12.7c1.8,0.8,3.6,1.1,5.6,0.4C234.5,163.8,234.9,163.8,235.2,164.1z"/>
		<path class="st34" d="M347,192.1c0,1.4-1.1,2.8-2.1,2.7c-1-0.1-1.8-0.5-1.7-1.7c0-1.1,1.4-2.7,2.2-2.6
			C346.3,190.7,347.1,191,347,192.1z"/>
		<path class="st20" d="M286.6,158.9c0-2.7,1.2-4.4,3.7-5.3c0.7-0.3,1.6-0.4,1.6-1.4c0-0.3,0.3-0.4,0.5-0.4c1.3,0,1.8-0.8,2.1-1.9
			c0.2-0.7,0.8-1.1,1.1-1.7c1.2-2.4,1.1-4.8,0.5-7.3c-0.1-0.5-0.1-0.8,0.3-1c0.6-0.4,1.1-1,1.2-1.8c1.2-1.4,3-1.4,4.6-1.9
			c1-0.3,2.1-0.2,3.1-0.3c0.6-0.2,1.3-0.2,1.9,0c1.8,0.3,3.6,0.1,5.2,1.1c-0.7,0.7-1.5,0.4-2.3,0.2c-2.7-0.5-5.3-0.6-8,0
			c-1.4,0.3-2.9,1-3,2.4c-0.2,1.7-1.2,3.3-0.5,5.1c0.4,0.9-0.2,2-0.2,3c0.5,0.2,1.5-0.2,1.2,1c0.3-1.1,1.5-1.4,2.2-2.2
			c0.2-0.1,0.4-0.2,0.6-0.3c1.3-0.4,2.6-0.2,3.9-0.5c0.5-0.1,1.1,0,1.6,0.2c4,1.4,7,3.7,7.9,8.1c0.3,1.3,0.3,2.7,0.3,4.1
			c-0.1,1.2-0.5,2.2-1.3,3.1c-1.3,0.7-1.8,2.2-3.1,2.8c-0.6,0.4-1.3,0.7-1.8,1.1c-0.3,0.1-0.5,0.3-0.7,0.4c-3.8,1-7.1,0.1-10.1-2.4
			c-0.4-0.4-0.7-0.8-1-1.3c-0.9-2-1.7-4.1-1.9-6.4c-0.1-1.2-1.2-1.6-2.2-1c-0.5,0.3-1,0.6-1.4,1.1c-1.1,1-2,2.1-3.6,2.3
			c-0.6,0.1-0.8,0.5-0.9,1c-0.1,0.5-0.2,1.1-1,1C286.8,159.4,286.7,159.2,286.6,158.9z"/>
		<path class="st16" d="M315.7,158.1c-0.4-0.4-0.3-0.9-0.3-1.4c0.2-4.6-1.9-7.6-5.9-9.8c-2-1.1-4-0.7-6.1-0.5
			c-0.4,0-0.8,0.1-1.2,0.2c0-0.8,0.7-0.8,1.2-0.9c0.5-0.1,0.9-0.2,1.4-0.3c4.6-0.8,9.4,2.2,11,7.1c0.2,0.5,0.3,1,0.4,1.4
			c0.1,0.8,0,1.7,1.1,1.9c0.9,0.2,2.1-0.4,2.6-1.4c0.8-1.3,1.1-2.9,2.6-3.8c0.5-0.3,0.3-2.7-0.4-3.3c-1.4-1.1-2.2-2.7-3.5-3.8
			c-2.2-1.9-4.9-2.7-7.6-3.6c-1.5-0.5-3.1-0.4-4-2c-0.1-0.2-0.5-0.3-0.8-0.2c-1.1,0.1-2.2,0.2-3.3,0.2c-0.5,0-1,0.3-1.1,0.8
			c-0.3,1.7-1.6,2.9-2,4.6c-0.4,1.9-0.3,2.4,1.4,3c0.2,0.1,0.4,0.2,0.5,0.4c-1.3,0.9-2.5,2-3.7,3.3c0.1-1,1.1-1.2,1.1-2
			c-0.3-0.3-0.5-0.2-0.7,0c-0.3,0.3-0.6,0.4-0.9,0.1c-0.4-0.4,0-0.6,0-0.9c0.2-1,0.7-2,0.2-3.2c-0.3-0.8-0.6-1.8,0.4-2.5
			c0.2-0.1,0.3-0.3,0.2-0.6c-0.3-2.4,1-4,3.4-4.5c2.9-0.5,5.8-0.6,8.7,0.1c0.6,0.1,1.2,0.1,1.8,0.1c0.3,0.3,0.7,0.3,1.1,0.3
			c1.7,0.8,3.3,1.8,4.9,2.7c1.5,1.6,3.2,3.2,4.4,5.1c0.2,0.3,0.4,0.7,0.8,0.9c0.8,2.2,1.5,4.5,2,6.8c0.2,1-0.1,2-1,2.6
			c-2,1.4-4.2,2.3-6.5,2.9C317.3,158.5,316.5,158.4,315.7,158.1z"/>
		<path class="st14" d="M309.7,164.7c0.4-0.6,1.1-0.7,1.6-1.1c1.3-0.2,2.1,0.3,2.3,1.6c0.2,1.3,0.3,2.6,0.7,4c0.3,0.9-0.6,1.9-0.6,3
			c-0.1,1.4-1.1,1.5-2.2,1.9c-1.1,0.4-2.3,0.6-3.3,1.3c-3.6,0.2-7.1-0.3-10.5-1.9c-2.2-1-4-2.5-5.7-4.1c-2.7-2.7-4.5-5.9-5.2-9.7
			c0.2-0.2,0.5-0.3,0.4-0.5c-0.2-1.6,0.7-2.2,2.1-2.3c1.3-0.1,1.9-1.2,2.6-2c0.8-0.8,1.8-1,2.6-1.7c0.4-0.4,1.8,0.8,1.9,1.7
			c0.3,2.2,0.9,4.4,2,6.4c-0.8,0.2-1.1-0.4-1.4-0.9c-0.5-0.8-0.7-1.7-1-2.5c0-0.4,0-0.7-0.2-1.1c-0.4-1.3-1-1.5-2-0.5
			c-0.5,0.5-0.9,0.9-1.6,1.1c-1.4,0.4-2.2,1.6-3.2,2.5c-0.8,0.8-0.6,2.3-0.1,3.4c1.9,4.1,5,6.9,9.1,8.7c0.5,0.2,0.9,0.3,1.4,0.4
			c1.3,0.2,2.6,0.6,3.8,0.9c3.8,1,5.3,0.9,7.7-2.6c1.2-1.8,0.5-3.4,0.6-5.1c0-0.6-0.4-0.9-1-0.8C310.4,164.8,310,165,309.7,164.7z"
			/>
		<path class="st33" d="M315.7,158.1c0.1-0.1,0.2-0.2,0.3-0.2c1.8,0.5,3.2-1.1,4.9-0.8c1.2-1.6,4.1-1.3,4.4-3.9
			c0.1-0.9-0.4-1.8-0.6-2.7c-0.4-1.5-1-2.9-1.2-4.5c1.2,2.8,2.4,5.7,2.5,8.8c0,0.3,0.1,0.8-0.2,0.9c-1.4,0.7-2.1,2.6-4,2.2
			c-0.9-0.2-1.2,0.4-1.8,0.8c-0.9,0.6-1.7,1.1-2.2,2.1c-0.7,1.2-0.7,2.5-0.5,3.8c0,0.3,0.2,0.7-0.1,0.9c-1.5,0.9-0.7,2.1-0.5,3.3
			c0.1,1.1,0.2,2.3-0.3,3.4c-0.4,1-1.2,1.1-2.1,1.2c-0.3-0.2-0.6-0.5-0.4-0.8c1.1-1.9,0.2-3.7-0.1-5.6c-0.2-1-0.4-2,0.5-2.8
			c0.3-0.3,0.3-0.8-0.1-1.1c-1.2-1.3-1.2-1.3,0.1-2.4C315.1,160,315.2,158.9,315.7,158.1z"/>
		<path class="st21" d="M317.7,171.7c0.5-0.9,0.6-1.6,0.4-2.3c-0.1-0.2-0.1-0.6,0-0.6c2.2-1.3,0.4-3.1,0.5-4.6
			c0-0.9,0.7-1.9,0.2-2.9c-0.1-0.3,0.3-0.4,0.7-0.5c1.2-0.4,2.3-1.3,3.8-1c0.4,0.1,0.4-0.4,0.5-0.7c0.1-0.6,0.5-0.8,1-1
			c1.1-0.4,1.4-0.2,1.2,0.9c-0.2,1.1-0.4,2.2-0.8,3.2C323.6,166,321.5,169.2,317.7,171.7z"/>
		<path class="st16" d="M314.3,160.8c-0.2,0.3-0.4,0.7-0.7,1c-0.4,0.6-0.4,0.9,0.4,0.7c0.3-0.1,0.9-0.1,0.8,0.1
			c-0.3,0.7,0.6,1.5,0,1.8c-2,1.2-0.6,2.8-0.4,4.1c0.2,1,0,2.1,0.5,3c0.2,0.5-0.5,0.6-0.7,0.8c-0.3,0.3,0,0.7,0,1
			c-1.8,1.3-3.9,1.6-6,1.9c0.6-1.4,2-1.4,3.2-1.8c1.7-0.6,2.1-0.9,2-2.7c0-0.1-0.1-0.3-0.1-0.4c1.5-1.7-0.5-3.3-0.2-5
			c0.2-1-0.7-1.8-1.8-1.9C312.6,162.9,313,161.3,314.3,160.8z"/>
		<path class="st18" d="M318.5,139.9c-1.8-0.7-3.4-1.6-4.9-2.7C315.4,137.6,316.9,138.8,318.5,139.9z"/>
		<path class="st18" d="M307.2,135.8c-0.6,0-1.3,0-1.9,0C305.9,135.4,306.6,135.4,307.2,135.8z"/>
		<path class="st35" d="M249,71.3c1,1.9,1.6,3.9,1.9,6c0.1,0.4,0.1,0.9,0.1,1.3c0,1.1-0.3,2.1-1.4,2.5c-1.4,0.5-2.3,1.9-3.8,2.4
			c-2.8,0.9-3.4,2.1-2.9,5c0.2,1.1,0.3,2.3-0.5,3.3c-0.4,0.5-0.6,1.2-0.4,1.8c0.4,1.1-0.1,2.2-0.2,3.2c0,0.9-0.9,1.1-1.3,1.6
			c-1,0.5-2,0.9-3,1.4c-0.4-0.6-0.1-1.1,0.3-1.4c1.7-1.3,1.4-3.1,1.4-4.8c-0.1-1.2-0.6-2.5,0.4-3.7c0.2-0.3,0-0.7-0.3-0.5
			c-0.8,0.3-1.7-0.2-2.5,0.4c-0.8,0.2-1.4,0.8-2,1.2c-3.4,1.3-6.4,0.5-9.1-1.7c-0.4-0.6-0.8-1.2-1.4-1.7c-0.1-0.1-0.2-0.2-0.2-0.3
			c-0.2-0.4-0.4-0.6-0.7-1c-0.1-0.1-0.1-0.2-0.2-0.4c-0.1-0.3-0.1-0.6-0.1-0.8c-0.8-2.1-1.1-4.2-0.6-6.3c0.2-1,0.6-1.9,1.1-2.8
			c0.1-0.2,0.2-0.4,0.4-0.5c0.3-0.2,0.6-0.4,0.9-0.8c0.1-0.1,0.2-0.2,0.3-0.3c0.5-0.4,0.9-0.8,1.2-1.4c1.1-1.2,2.7-1.3,4.2-1.8
			c0.1,0,0.3-0.1,0.4-0.1c4.2-0.1,7.2,2,9.5,5.3c0.7,1,0.8,2.2,1.1,3.4c0.2,0.7,0.6,1.1,1,1.6c0.3,0.4,0.8,0.6,1.2,0.4
			c1.2-0.7,2.2-1.4,3.2-2.4c1.8-1.9,1.1-4.3,2-6.3C248.9,72.4,248.3,71.7,249,71.3z"/>
		<path class="st15" d="M236.6,89.4c0.8-0.8,1.9-0.1,2.8-0.7c0.2-0.2,0.8,0.4,0.9,0.9c0.2,0.5-0.3,0.6-0.6,0.8
			c-0.5,0.3-0.6,0.8-0.4,1.3c0.4,1.6,0.3,3.3,0.3,4.9c0,0.7-0.3,1.1-0.9,1.5c-0.7,0.4-1.1,1-1.3,1.8c-1.9,0.1-3.7,0.9-5.6,0.9
			c-4.5,0-8.5-1.3-12.1-4c-4.3-3.1-6.8-7.4-7.8-12.5c-0.1-0.1-0.1-0.2,0-0.4c0.1-0.1,0.2-0.1,0.2-0.2c0.1-1.7,1.4-2.2,2.8-2.6
			c1-0.3,1.6-1.2,2.5-1.7c1.4-0.8,2.8-1.4,4.4-0.7c0.4,0.2,0.9,0.4,0.8,0.9c-0.5,2.1,0.2,3.9,0.9,5.8c0,0.3,0,0.5,0,0.8
			c-0.7,0.1-0.9-0.4-1.1-0.9c-0.5-1-0.8-2-0.9-3.1c0-0.4,0-0.8-0.3-1.2c-0.4-0.5-0.7-0.7-1.2-0.2c-1.5,1.5-3.5,2.4-5.4,3.4
			c-0.2,0.1-0.4,0.3-0.4,0.5c-0.1,1.3-0.4,2.6,0.3,4c1.8,3.2,4.1,5.7,7.1,7.6c1.5,0.9,3.1,1.4,4.8,1.7c2,0.3,3.9,1.4,6,1.1
			c1.9-0.3,3.5-1,4.2-2.9c0.3-0.6,1.1-0.9,1.1-1.5c0-1.8,0.6-3.7-1-5.1C236.6,89.5,236.6,89.4,236.6,89.4z"/>
		<path class="st35" d="M249,71.3c0.1,0.6,0.2,1.3,0.3,1.9c-1.3-0.5-2-1.7-2.7-2.7c-1.9-2.9-4.5-4.7-7.7-5.7
			c-1.4-0.4-2.4-1.7-3.8-2.1c-0.4-0.1-0.7-0.5-1.1-0.4c-2.2,0.1-4.5,0.1-6.6,0.7c-1.4,0.4-1.9,1.9-2.1,3c-0.2,1.2-0.3,2.5-0.4,3.8
			c-0.1,0.9,0.1,1.7,0.6,2.4c0.9,1.1,0.9,1.2-0.3,2.1c-0.5,0.1-0.8,0.4-1.2,0.7c-0.4,0.3-0.8,0.4-1.3,0.1c-0.4-0.3-0.4-0.7-0.4-1.1
			c0-0.3,0.2-0.6,0.2-0.9c0.2-1.3,0.4-2.5,0-3.9c-0.5-1.5,0-3.1-0.1-4.7c0-0.7,0.8-1.4,1.5-1.8c0.4-0.2,0.9-0.3,1.2-0.5
			c3.9-1.5,7.9-1.4,11.9-0.4c3.3,0.8,6,2.7,8.6,4.9C247.1,67.9,247.8,69.7,249,71.3z"/>
		<path class="st21" d="M220.1,64.6c-0.2,1.1,0.7,2.2-0.8,2.7c-0.1,0-0.1,0.2-0.1,0.2c1.3,1.2-0.3,2.7,0.3,4
			c0.6,1.4-0.7,1.8-1.6,2.5c-1.4,1.1-3.4,1.3-4.6,2.8c-0.2,0.2-0.4,0.6-0.8,0.4c-0.5-0.2-0.4-0.6-0.3-1c0.1-1.2,0.6-2.3,1.1-3.4
			C214.6,69.5,216.9,66.9,220.1,64.6z"/>
		<path class="st33" d="M225.1,62.2c-0.2,0.5-0.8,0.4-1.1,0.7c-0.7,0.6-1.5,1.2-1.3,2.5c0.2,0.9,0.9,2-0.2,2.9
			c-0.2,0.2-0.1,0.5,0.1,0.7c1.2,1.4,0.4,2.9,0.2,4.3c-0.1,0.5-0.5,1.2-0.1,1.5c0.5,0.3,1-0.1,1.3-0.7c0.2-0.3,0.5-0.2,0.7-0.1
			c0.2,1.1-1,1.3-1.2,2.1c-0.2,0.3-0.4,0.6-0.5,1c-0.4,0.8-0.7,1.6-1.8,0.7c-0.2-0.1-0.5-0.1-0.7,0c-2.4,1.1-4.9,1.7-7.2,3
			c-0.6,0.4-1.2,1-1.2,1.9c0,0.5,0,0.9-0.4,1.2c0,0.1,0,0.2,0,0.3c-0.5-1.7-0.5-3.4,0.4-5c0.1-0.2,0.4-0.6,0.6-0.6
			c1.4,0.1,2.2-1.2,3.6-1.4c1.2-0.1,2.6-0.7,2.9-2.4c0.2-1.1,1.3-1.6,1.6-2.6c0.3-0.9,1.7-1.4,0.5-2.6c1-1.3-0.3-2.2-0.5-3.2
			c0-0.2-0.2-0.4-0.1-0.6C221.8,64.1,222.8,62.4,225.1,62.2z"/>
		<path class="st18" d="M240.4,98.5c-0.2-0.8,1-0.9,0.8-1.4c-0.3-1.1,0.9-2.1,0.1-3.3c-0.3-0.4-0.1-1.3,0.2-1.8c1-1.4,1-2.8,0.4-4.4
			c-0.5-1.5,1.2-4,2.8-4.2c1.5-0.2,2.3-1.3,3.4-2c0.6-0.4,1.6-0.2,1.6-0.7c0.1-0.9,1.2-1.4,0.8-2.4c-0.1-0.2,0.1-0.6,0.2-0.9
			c0.9,2.3,0.8,2.4-1,4.1c-0.5,0.5-0.3,1.1-0.4,1.7c0,0.2-0.1,0.2-0.3,0.3c-1.4-0.1-2.7-0.3-3.2,1.5c0,0.2-0.3,0.4-0.5,0.5
			c-1.6,1.1-1.8,2.6-1.6,4.5c0.1,1.3,0.4,2.9-0.5,4.2c-0.2,0.3-0.3,0.6-0.3,1C243,97.1,242.5,97.8,240.4,98.5z"/>
		<path class="st21" d="M249.2,83.3c0.1-0.1,0.2-0.2,0.3-0.3c0.1,0,0.2,0,0.3,0c0.5,0.2,0.8-0.9,1.2-0.4c0.4,0.4,0.2,1,0.1,1.6
			c-0.9,4.6-3.1,8.5-6.6,11.6c0-3.3,1.9-6.2,2.3-9.4c0-0.3,0.2-0.6,0.5-0.6C248.9,85.7,249,84.5,249.2,83.3z"/>
		<path class="st33" d="M306.1,90.2c-5.2,0-9-4-9-9.5c0-4.6,4.3-8.8,9-8.7c4.6,0,9.1,4.5,9.2,9.1C315.3,86.1,310.9,90.8,306.1,90.2z
			"/>
		<path class="st36" d="M305.3,71.3c-1.1,0.3-2.3,0.6-3.4,0.8c-0.4,0.1-0.8,0-1.1-0.4c-1-1.1-0.6-3.4-0.1-4.6c0.5-1.1,1.8-2,1.4-3.5
			c-0.2-0.7,0.5-1.1,1-1c1.4,0.3,2.6,0,3.9-0.2c1.4-0.2,2.7,0.3,4,0.6c0,0,0.1,0,0.1,0c0.6,1.4,2,1.4,3,2c0.9,0.6,1.9,0.8,2.8,1.3
			c1.8,0.9,3.6,1.7,4.7,3.7c0.6,1.1,1.3,2.1,1.6,3.4c0.2,0.8,0.4,1.7-0.7,2c-1,0.3-0.8,1.6-1.6,2.2c-0.5,0.4-1.2,1.3-1.5,2.1
			c-0.5,1.1-1.2,1.3-2.1,1.4c-1,0.1-1.2-0.9-1.5-1.5c-0.2-0.5-0.4-1.1-0.4-1.7c0,0,0.1-0.1,0.1,0c2.2,0.5,2.7-0.1,2.6-2.4
			c-0.1-3-1.6-4.7-4.4-5.7c-1.4-0.5-2.8-1.2-4.2-1.4c-1.8-0.3-3.7-0.9-5.6-0.5c-0.7,0.2-1.2,0.4-1.5,1c-0.5,1-0.1,1.7,1,1.8
			C304.1,70.7,304.8,70.5,305.3,71.3z"/>
		<path class="st37" d="M313.2,90.2c0,0.1,0,0.2,0,0.3c-0.1,0.3-0.1,0.5,0,0.8c0,0.1,0,0.2,0,0.3c0,0.7,0,1.4,0.5,2.1
			c0.2,0.2,0.4,0.6,0.2,0.9c-0.8,1-1.2,2.4-2.3,3c-1,0.6-1.7,1.2-2.5,2c-1.4,0.5-2.9,0.7-4.3,0.4c-2.5-0.6-5-1.1-7.3-2.1
			c-3.7-1.4-6.4-4.2-8.3-7.6c-0.2-0.4-0.5-0.9-0.7-1.3c-0.5-0.9-1.1-1.8-0.4-2.9c0.1-0.2,0.1-0.5,0-0.8c-0.1-1.1,0.3-1.7,1.2-2.3
			c1.5-1.1,3-2.2,4.4-3.4c0.9-0.7,1.5-0.5,2.2,0c0.1,0.5,0.2,1.1,0.3,1.6c0.2,0.2,0.1,0.4,0.1,0.6c-0.2,0.3-0.6,0.3-0.9,0.3
			c-1.3,0.3-2.2,0.8-2.5,2.3c-0.3,1.1-1,2.1-0.5,3.3c0.2,0.6,0.4,1.3,0.9,1.7c1.6,1.4,3,2.9,5.2,3.6c2.7,0.9,5.6,0.9,8.2,2
			c0.7,0.3,1.4,0.2,1.6-0.8c0.2-1,1-1.4,1.9-1.6c1-0.3,1.3-0.7,0.7-1.7c-0.2-0.3-0.4-0.6-0.1-1c0.3-0.3,0.7-0.5,1.1-0.5
			C312.4,89.6,312.9,89.7,313.2,90.2z"/>
		<path class="st10" d="M310.8,89.9c0,0.5,0.4,0.7,0.7,0.9c0.7,0.8,0.4,1.8-0.6,2.1c-1.1,0.3-2.5,0.2-2.2,2.1c0.1,0.5-0.5,0.7-1,0.7
			c-0.8,0-1.6-0.3-2.4-0.5c-1.3-0.4-2.8-0.6-4.1-0.9c-2.1-0.5-4.4-0.7-6-2.5c-0.3-0.4-0.8-0.7-1.3-1c-1.7-1.1-2.5-2.9-2.3-4.7
			c0.1-1.1,0.6-2.7,1.5-3.5c0.7-0.7,1.8-1.4,3.1-0.8c0.3,0.3,0,0.8,0.3,1.1c0.8,6.1,8.2,10.2,13.5,7.3C310.2,90,310.5,90,310.8,89.9
			z"/>
		<path class="st38" d="M305.3,71.3c-0.5,0.1-1-0.2-1.5-0.1c-0.9,0.1-1.9,0.3-2.1-1c-0.2-1.4,0.6-2.7,1.9-2.7c1.5,0,3-0.7,4.4,0.4
			c0.2,0.2,0.6,0,0.9-0.2c0.2-0.2,0.5-0.3,0.8-0.1c1.6,1,3.6,1.3,5.3,2.1c2.9,1.3,4.5,4.4,3.7,7.6c-0.2,0.9-0.8,1.3-1.5,1.6
			c-0.8,0.3-1.2-0.5-1.7-0.9c-0.6-1.9-1.9-3.3-3.4-4.6C310.1,71.7,307.8,71,305.3,71.3z"/>
		<path class="st33" d="M286.6,83.3c-0.8-2.4,0-3.7,1.4-5.4c1.1-1.4,2.1-0.9,3.2-0.9c0.3,0,0.7-0.1,0.7-0.2c0.8-2,3.5-2.5,3.8-4.9
			c0.1-0.4,0.5-0.5,0.7-0.8c0.2-0.2,0.6-0.3,0.5-0.6c-0.5-1.7,0.5-3.3,0-5.1c-0.3-0.8,0.4-2.2,1.3-2.7c5-2.4,10.1-2.4,15.3-0.3
			c-2.1-0.1-4.2-0.8-6.3-0.9c-2-0.1-4,0-5.9,0.6c-2.2,0.7-3,2.2-2.1,4.3c0.4,0.8-0.5,1-0.4,1.7c0.3,1.2-0.6,2.4-0.3,3.7
			c0.1,0.5-0.7,1.1-1.1,1.6c-0.3,0.3-0.5,0.6-0.1,0.9c0.3,0.3,0.7,0.1,1-0.2c0.3-0.3,0.6-0.7,0.9-1c0.2-0.2,0.4-0.3,0.6-0.1
			c0.3,0.2,0.1,0.4-0.1,0.6c-1.5,1.3-2.5,3-3.2,4.9c-0.6-0.1-0.3-0.5-0.3-0.7c-0.1-0.5-0.8-0.9-1-0.7c-0.8,0.9-2.1,0.5-2.9,1.1
			c-1.1,0.8-2.4,1-3.6,1.7C287.3,80.8,286.6,81.8,286.6,83.3z"/>
		<path class="st33" d="M323.7,71.3c1.2,2.3,1.7,4.8,2.4,7.2c0.1,0.3,0,0.5-0.3,0.7c-0.1,0.1-0.2,0.1-0.2,0.2
			c-0.8,2-3.2,2.1-4.4,3.7c-0.2,0.3-0.6,0.3-0.9,0.3c-0.7,0-1.2,0.3-1.4,1.1c-0.1,0.4-0.3,0.6-0.6,0.9c-0.4,0.5-0.9,1-1,1.6
			c-0.3,1.4,0.1,2.8-0.3,4.3c-0.3,1.2,0,2.8,0.4,4.2c0.3,1.2-0.1,2.2-1.3,2.7c-0.5,0.2-1.1,0.5-1.6,0.7c1.8-1.9,1.1-4,0.2-6
			c-0.1-0.2-0.5-0.6-0.1-0.7c1.3-0.4,0.1-1.3,0.3-1.9c0.1-0.4-0.8-1,0-1.7c0.1-0.1-0.3-0.8-0.8-0.2c-0.2,0.2-0.4,0.4-0.7,0.1
			c-0.2-0.2-0.1-0.4,0-0.6c1.1-1.5,2-3.1,2.3-4.9c0.1-0.4,0.5-0.6,0.7,0c0.1,0.2,0.2,0.5,0.4,0.6c1.4-0.8,2.6-1.8,4.1-2.3
			c0.8-0.3,1-1.4,1.7-1.9c0.1-0.1,0.2-0.3,0.3-0.4c0.5-0.4,1.7,0,1.5-1.5c-0.1-0.7,0.1-1.6-0.1-2.4C324.2,73.6,324,72.4,323.7,71.3z
			"/>
		<path class="st14" d="M295.9,79.5c-1.3-0.4-2.2,0.2-2.9,1.3c-0.1,0.1-0.1,0.2-0.2,0.2c-1.6,0.5-2.3,2.1-3.8,2.7
			c-0.1,0-0.3,0.1-0.3,0.2c0,1.4-1.1,2.8-0.4,4.2c1.6,3.1,3.5,6,6.6,7.8c1,0.6,2,1.4,3.1,1.9c1,0.4,2,0.2,3.1,0.6
			c2.5,1.1,5.3,1.6,8.1,1.2c-0.3,0.8-1.4,0.3-1.6,1.1c-6,0.3-11.2-1.8-15.4-6c-2.2-2.2-4-4.9-4.6-8c0.4-0.9,0.2-1.9,0.1-2.8
			c-0.1-0.7-0.4-1.6,1.1-1.5c0.6,0.1,1.8-0.3,2.2-1.5c0.3-0.9,1.3-0.7,1.9-1.3c0.5-0.5,1.3-0.7,2-0.8
			C295.1,78.7,295.8,78.8,295.9,79.5z"/>
		<path class="st14" d="M309.1,99.5c0.3-1.2,1-1.9,2.2-2.5c0.9-0.5,1.4-1.9,2.3-2.8c0.1-0.1-0.4-0.8-0.5-1.2
			c-0.2-0.5-0.3-1.1,0.2-1.5c0.7,1.7,1.4,3.4,0.8,5.4c-0.2,0.8-0.5,1.3-1.3,1.5C311.5,98.8,310.3,99,309.1,99.5z"/>
		<path class="st14" d="M313.2,90.2c-0.4-0.3-1.1-0.2-1.4-0.8C312.7,89.1,312.9,89.7,313.2,90.2z"/>
		<path class="st14" d="M296.5,82.8c-0.3-0.3-0.3-0.7-0.3-1.1c0-0.2,0-0.4,0-0.6C296.7,81.6,296.4,82.2,296.5,82.8z"/>
		<path class="st14" d="M313.2,91.3c-0.5-0.3-0.5-0.5,0-0.8C313.4,90.8,313.4,91,313.2,91.3z"/>
		<path class="st39" d="M336.3,57.5L336.3,57.5L336.3,57.5C336.3,57.5,336.3,57.6,336.3,57.5C336.2,57.6,336.2,57.6,336.3,57.5
			c-0.1,0.1-0.1,0.1-0.1,0.1c-0.1,0-0.1-0.1-0.1-0.1c0,0,0,0,0,0c-0.2-0.2-0.3-0.1-0.5,0c-0.2-1.7-1.2-2.9-2.5-3.8
			c-0.5-0.3-1-0.6-1.4-1.1c0.1-0.1,0.1-0.2,0.1-0.3c0.1-0.1,0.1-0.2,0.2-0.3c0,0,0.1-0.1,0.1-0.1c0.3-0.1,0.5,0,0.8,0.1
			c0.2,0.1,0.3,0.1,0.4,0.2c0,0,0,0,0.1,0.1c0,0,0,0,0.1,0c0.1,0.1,0.2,0.2,0.3,0.3c0,0,0,0.1,0.1,0.1c0,0,0.1,0.1,0.1,0.1v0
			C335.2,54.2,336.4,55.5,336.3,57.5z"/>
		<path class="st40" d="M338.2,57.8c-0.1-1.1,0.1-2.2-0.2-3.3c-0.9-4-4.8-6.4-8.5-5.5c-0.5,0.1-1,0.2-1.5,0.2c2-1.3,5.2-1.1,7.5,0.6
			C338.2,51.7,339.1,54.5,338.2,57.8z"/>
		<path class="st30" d="M332.7,52.3c-0.3-0.1-0.5-0.2-0.8-0.3c-1.3-0.5-2.7-1.2-4.2-0.5c-0.6,0.3-1.1-0.1-1.6-0.6
			c2.8-1.2,5.5-1.3,8.2,0.1c0.3,0.2,0.7,0.3,0.8,0.7c0,0,0,0,0,0c-0.9,0.6-1.6-0.2-2.4-0.4c0.2,0.3,0.8,0.5,0.5,1.1
			C333.1,52.4,332.9,52.5,332.7,52.3z"/>
		<path class="st41" d="M337.1,59.6c-0.4-1-0.2-2.1-0.2-3.4c0.9,1.1,0,2,0.2,2.9C337.1,59.3,337.1,59.5,337.1,59.6z"/>
		<path class="st42" d="M333.3,52.3c-0.2-0.4-0.6-0.5-1-0.7c-0.3-0.1-0.8-0.2-0.7-0.7c0.2-0.5,0.7-0.4,1.1-0.2
			c0.8,0.4,1.6,0.9,2.5,1c0.1,0.7,0.8,1.2,1,1.9c0.1,0.3,0.2,0.7-0.1,0.9c-0.3,0.2-0.5-0.2-0.7-0.4c-0.4-0.6-0.6-1.5-1.6-1.5
			C333.5,52.8,333.4,52.5,333.3,52.3z"/>
		<path class="st39" d="M336.3,57.5c0.4,0.9,0.4,1.8,0,2.7C336.1,59.3,336.1,58.4,336.3,57.5L336.3,57.5z"/>
		<path class="st43" d="M336.3,57.5c0,0.9,0,1.8,0,2.7c-0.5-0.9-0.1-1.8-0.3-2.7C336.1,57.5,336.2,57.5,336.3,57.5z"/>
		<path class="st31" d="M333.3,52.3c0.2,0.1,0.4,0.2,0.6,0.3c0,0.1,0,0.2,0,0.3c-0.4,0-0.8-0.2-1.1-0.5
			C332.9,52.3,333.1,52.3,333.3,52.3z"/>
		<path class="st23" d="M189.6,44.9c0.3,0.3,0.5,0.7,0.3,1.1C189.5,45.7,189.6,45.3,189.6,44.9z"/>
		<path class="st44" d="M192.3,136.5c0.3-2.8-0.3-5.3-0.2-7.9c0.3-9.9-0.8-19.8-0.7-29.7c0-3.8-0.1-7.6-0.2-11.4
			c-0.1-12-0.4-24.1-0.4-36.1c0-2,0.2-4.2-0.6-6.2c-0.5-1.1,1.2-3.4,2.4-3.6c1.5-0.1,2.7,1.4,1.9,2.8c-0.9,1.5-0.9,3.1-0.9,4.8
			c0,7,0.2,14.1,0,21.1c-0.5,13.8,0.2,27.6-0.4,41.4c-0.3,7.8-0.2,15.5-0.4,23.3C192.9,135.5,193,136,192.3,136.5z"/>
		<path class="st33" d="M235.2,164.1c-1.3,0.2-2.3,0.9-3.8,0.7c-3.5-0.4-6.2-2-7.8-5.1c-1.1-2.2-1.4-4.5-0.8-6.9
			c0.2-0.8,0.7-1.5,1.2-2.1c0.3-0.4,0.7-0.6,0.7-1.1c2.5-2.2,5.3-3.9,8.6-2.9c3,0.9,5.8,2.5,6.7,6c0,0.2,0.2,0.3,0.3,0.5
			c0.4,2.2,0.5,4.3-0.6,6.4c-0.9,1.7-2,3.1-3.8,3.9C235.7,163.6,235.4,163.8,235.2,164.1z"/>
		<path class="st13" d="M228.1,146.3c-0.2,0.2-0.5,0.4-0.8,0.6c-1.7,1.1-2.8,0.7-3.2-1.3c-0.2-0.9-0.3-2,0.4-2.8
			c0.3-0.4,0.5-1,0.3-1.4c-0.4-1.2,0.2-1.7,1.1-2.1c0.4-0.2,0.7-0.5,0.9-0.8c0.4-0.6,1-1,1.6-1c1.3,0.2,2.6-0.1,3.9-0.1
			c1-0.1,2-0.1,2.8,0.9c0.8,0.8,2.3,0.5,3.3,1c2.5,1.2,5.4,1.9,7.3,4.1c2.1,2.4,3.5,5.1,2.8,8.4c-0.2,0.9-1,1.3-1.3,2.1
			c-0.3,0.8-1,1.5-1.5,2.2c-1,1.2-2.5,0.9-3.8,0.5c-0.4-0.5-0.3-1.1-0.5-1.6c-0.1-0.7-0.2-1.5-0.3-2.2c1.3,0,1.1,1.4,2.2,2
			c0-1.4,0.4-2.5,1.4-3.4c0.2-0.2,0.2-0.6-0.1-0.7c-0.9-0.6-1-1.5-1.2-2.4c-0.3-1.2-0.9-2-2-2.6c-2-1.1-4.4-1.6-6.4-2.7
			c-0.2-0.1-0.4,0-0.5,0.1c-0.9,0.5-1.6,0.2-2.3-0.6c-1.2-1.3-4.2-0.8-4.9,0.8c-0.3,0.6-0.3,1.2-0.6,1.8c-0.2,0.4,0.1,0.7,0.5,0.8
			C227.5,145.7,228,145.8,228.1,146.3z"/>
		<path class="st10" d="M228.1,146.3c-0.5-0.6-1.6,0.4-2-0.7c-0.2-0.4-0.6-0.9,0.2-1.2c0.4-0.2,0.3-0.5,0.3-0.8
			c0-1.4,1.3-2.5,2.6-2.5c0.6,0,1.3,0,1.9,0c0.7,0,1.3,0,1.6,0.9c0.2,0.7,0.9,1.1,1.5,0.2c0.3-0.4,0.8-0.4,1.1-0.1
			c1.3,1.4,3.2,1.4,4.8,2.1c2.2,1,3.8,2.1,4,4.7c0,0.4,0.1,0.6,0.5,0.8c1,0.5,1.1,1.5,0.2,2.1c-1,0.6-1,1.4-1,2.3
			c0,0.4,0.1,1-0.5,1.1c-0.6,0.1-0.8-0.3-1-0.8c-0.3-0.7-0.7-1.4-1.2-2c-0.6-2.4-2.2-4.2-4.2-5.5
			C234.1,145.3,231.1,145.2,228.1,146.3z"/>
		<path class="st33" d="M223.7,149.3c0-0.3,0.1-0.7,0.4-0.6c0.4,0.1,0.2,0.3,0,0.4C223.9,149.2,223.8,149.2,223.7,149.3z"/>
		<path class="st37" d="M234.4,164.9c0.2-0.1,0.4-0.2,0.5-0.3c0.7,0,1.2-0.8,1.9-0.3c0.1,0.3,0.3,0.7,0.4,1c0.1,0.7,0.7,1.5-0.4,2.2
			c-0.5,0.3-0.4,1.3-0.3,2.1c0.1,0.6,0,0.8-0.7,1.1c-1,0.4-2.1,0.7-2.1,2.2c0,1-1.4,1.5-2.2,0.7c-1.4-1.4-2.9-1.8-4.7-1.4
			c-0.2,0-0.5,0-0.7-0.1c-2-1-4.1-1.5-6.1-2.2c-1.6-0.6-2.7-2-3.8-3.3c-0.9-1-1.5-2.3-2.2-3.4c-0.1-0.2-0.3-0.7-0.2-0.7
			c1.4-1,0.9-2.8,1.7-4c0.5-0.7,1.4-1,2.3-1c0.8,1.1,1,2.3,0.2,3.4c-0.6,0.9-0.6,1.8,0.1,2.5c1.6,1.9,3.2,3.9,6.1,4.2
			c2.3,0.3,4.4,1,6.6,1.8c1.1,0.4,2,0.4,2.6-0.8c0.2-0.5,0.6-0.8,1.1-1.1c1.2-0.9,1.2-1.1,0.2-2.3
			C234.6,165.3,234.4,165.1,234.4,164.9z"/>
		<path class="st10" d="M234.4,164.9c1.2,0,1.4,0.9,1.6,1.7c0.2,0.9-0.5,1.1-1.1,1.3c-0.6,0.3-1.1,0.7-1.3,1.3
			c-0.3,1.2-1.2,1.3-2.2,1c-1.2-0.5-2.5-1-3.7-1.3c-1.6-0.4-3.2-0.7-4.7-1.1c-2.8-0.6-4.4-2.8-5.8-5.1c-0.3-0.4-0.3-1.2,0-1.4
			c1.4-1.1,0.6-2.6,0.7-3.9c1.3-0.6,2.6-1.3,4.1-0.5c-0.1,0.8,0.4,1.4,0.5,2.2c-0.8,0.6-1.1,0-1.7-0.5c-0.1,0.3,0,0.6-0.1,0.8
			c-1,1.6,0,2.5,1,3.5c1.6,1.5,2.6,2.1,4.1,2.1c-0.2-0.7-0.9-1-1.3-1.5c-0.4-0.5-1-0.9-0.6-1.6c1.6,1.4,3.2,2.8,5.5,3.1
			C231.1,165.3,232.7,165.4,234.4,164.9z"/>
		<path class="st16" d="M241,158.3c-0.2-0.2-0.3-0.4-0.2-0.6c0.1-0.2,0.3-0.1,0.4,0C241.2,158,241.1,158.2,241,158.3z"/>
		<path class="st16" d="M241.3,154.8c0.4,0.5,0.5,1,0.5,1.6C241.1,156,241.3,155.4,241.3,154.8z"/>
		<path class="st8" d="M224,161.9c0.3,1.1,1.3,1.7,2.1,2.4c0.3,0.3,0.7,0.5,0.5,1c-0.2,0.5-0.7,0.5-1.1,0.4
			c-1.2-0.2-2.3-0.8-3.3-1.6c-1-0.9-1.9-1.9-2.6-3.1c-0.1-0.2-0.4-0.5-0.2-0.6c1.1-0.5,0.9-1.6,1-2.5c0-0.2,0.2-0.4,0.4-0.5
			c0.3,0,0.3,0.2,0.3,0.5c0.1,0.8,0.6,1.2,1.4,1.2C222.8,160.2,223.6,160.9,224,161.9z"/>
		<path class="st33" d="M297.6,154.8c0-3.5,3.8-7.5,7.1-7.7c6.6-0.4,10,4.2,10.2,8.9c0.1,3.6-4.5,8.6-7.8,8.3
			C301.2,163.8,297.5,161.5,297.6,154.8z"/>
		<path class="st37" d="M305,145.7c-0.8,0.5-2,0-2.7,0.8c-0.1,0.1-0.2,0.2-0.3,0.3c-0.2,0-0.5-0.1-0.7-0.1c-1.9,0-2.4-1.3-1.9-3.2
			c0.5-1.7,1.8-3,2-4.7c0.1-0.8,0.7-1.4,1.5-1.3c1.3,0.1,2.5-0.3,3.8-0.2c0.4,0,0.9-0.1,0.9,0.4c0.2,1.8,1.8,1.5,2.8,1.7
			c3.5,0.9,7,1.9,9.5,4.7c1.1,1.3,2.7,2.2,3.3,4c0.3,0.9,0.1,1.8,0.4,2.7c0.1,0.2-0.1,0.5-0.4,0.5c-1.9,0.3-1.9,2.1-2.5,3.3
			c-0.6,1.2-2.8,2.4-3.9,1.8c-0.9-0.5-0.9-1.4-0.9-2.3c2-0.3,1.8-0.3,2.2-2.4c0.4-2.4-0.9-4.1-2-6c-0.2-0.3-0.4-0.5-0.7-0.6
			c-3.5-1.3-7-2.9-11-2.5c-0.9,0.1-1.7,0.3-2.2,1.1c-0.2,0.4-0.4,0.7-0.2,1.1c0.2,0.4,0.6,0.3,1,0.3
			C303.8,145.1,304.5,145,305,145.7z"/>
		<path class="st37" d="M309.7,164.7c0.3-0.1,0.7-0.2,1-0.4c1-0.5,1.7,0.2,1.7,0.9c0,1.1,0.2,2.2,0.1,3.3c-0.2,2.6-1.9,4.4-3.9,5.5
			c-1.6,0.8-3.9,0.5-5.5-0.4c-1-0.6-2.1-0.7-3-0.8c-1.6,0-2.8-0.8-4-1.5c-3.3-1.9-5.8-4.6-7.5-8.1c-0.7-1.4-0.1-3.7,1.3-4.4
			c0.3-0.2,0.5-0.4,0.5-0.7c0.1-0.4,0.3-0.7,0.8-0.8c1.3-0.4,2.4-0.9,3-2.3c0.2-0.5,1.5-0.2,1.9,0.6c0.3,0.6,0.5,1.3,0.4,2
			c-0.6,0.2-0.9-0.6-1.5-0.5c-0.8,0.1-1.7,0.8-1.9,1.7c-0.1,0.5-0.1,1-0.4,1.4c-0.9,1.8-0.6,3.1,0.8,4.5c2.1,2.2,4.7,3,7.5,3.6
			c1.6,0.3,3.1,0.7,4.6,1.2c1.5,0.5,1.8,0.4,2.5-0.9c0.3-0.6,0.7-0.9,1.3-1.2c1.5-0.8,1.5-1.4,0-2.2c-0.2-0.1-0.3-0.2-0.4-0.4
			C309.3,164.8,309.5,164.7,309.7,164.7z"/>
		<path class="st10" d="M309.1,164.9c1-0.1,1.8,0.1,2,1.2c0.2,1.1-0.5,1.7-1.5,1.9c-0.6,0.2-1,0.5-1.1,1.2c-0.2,1.2-1.1,1.6-2.1,1.2
			c-3.1-1.2-6.4-1.3-9.4-2.6c-2.3-1-4.7-2.4-5.3-5.4c-0.1-0.3-0.2-0.6-0.1-0.8c0.5-1.3,1-2.5,1.2-3.9c0.2-1.3,2.9-1.2,3.7,0
			c0.6,1.2,0.6,2.7,1.9,3.6c1.5,2.4,3.8,3.5,6.5,3.8C306.3,165.4,307.7,165.3,309.1,164.9z"/>
		<path class="st10" d="M305,145.7c-0.8,0-1.5-0.3-2.3-0.1c-1,0.3-1.6-0.7-1.4-1.3c0.3-0.9,0.7-2,1.9-2.2c3.4-0.4,6.7-0.1,9.8,1.5
			c0.6,0.3,1.2,0.5,1.8,0.6c1.5,0.3,2.2,1.3,2.5,2.6c0,0.2,0,0.4,0.1,0.5c2.2,1.7,0.8,4,0.9,6.1c0,0.9-1.3,1.1-2.4,0.5
			c-0.6-0.9-0.8-2.1-1.3-3.1c-1.6-3.1-4.2-4.6-7.5-5.2C306.4,145.5,305.7,145.8,305,145.7z"/>
		<path class="st33" d="M232.1,89.7c-5.4-0.1-8.9-3.6-9-8.6c-0.1-4.7,4-8.7,8.6-8.5c4.3,0.2,8.4,3.4,8.5,8.6
			C240.3,86.5,236.5,89.4,232.1,89.7z"/>
		<path class="st45" d="M221.8,82c0.4,1.4,0.6,3,1.6,4.1c0,0,0,0,0,0c0.3,0.4,0.6,0.7,0.8,1.1l0,0c0.4,0.6,1,1,1.4,1.6
			c2.8,2,5.7,2.8,9.1,1.6c0.4-0.3,0.7-0.5,1.2-0.5c1,0.1,1.3,0.9,1.3,1.7c0,0.9-0.4,1.6-1.2,2c-0.8,0.3-1.4,0.8-1.9,1.5
			c-0.6,1-1.7,1-2.6,0.7c-3-1.1-6.2-1.5-9.2-2.6c-2.4-0.9-4.3-2.7-5.4-5.2c-0.1-0.1-0.1-0.3-0.1-0.4c0.1-1.7,0.5-3.3,1-4.8
			C218.2,81.5,220.7,81.1,221.8,82z"/>
		<path class="st14" d="M223.4,75.9c0.2-0.8,1-1.3,1.4-1.9c0.6-0.4,1.2-0.6,0.2-1.5c-0.7-0.7-1.1-1.7-0.8-3.1
			c0.3-1.1,0.8-2.4,0.2-3.6c-0.1-0.1-0.1-0.3-0.1-0.4c0-0.2,0.1-0.3,0.3-0.4c1.1-1.1,1.7-3.2,3.8-3c1.1,0.1,2.2,0,3.2-0.2
			c2.6-0.6,4.4,0.6,6.2,2c1,0.8,2.4,0.6,3.5,1.3c2.3,1.4,4.5,2.8,5.7,5.3c0.5,1,1.7,1.6,2.2,2.8c-0.6,1.3-0.9,2.7-0.6,4.2
			c0,0.2,0,0.7-0.1,0.8c-1.7,1-2.4,3-4.2,4c-1.4,0.8-2.8,0-3.3-2c-0.5-2-1.1-3.9-2.7-5.4c-2.2-2-4.7-3.2-7.7-3.2
			c0-0.7,0.6-0.6,1.1-0.7c1-0.1,1.9,0.2,2.8,0.3c3.3,1.1,5.7,3,6.9,6.3c0.1,0.8,0.3,1.5,0.7,2.2c0.3,0.5,0.6,0.8,1.2,0.8
			c0.5-0.1,0.9-0.4,1.1-0.9c0.6-1.3,1.5-2.5,1.5-4c0-0.2,0.1-0.4,0.3-0.6c0.7-0.8,0.9-1.3-0.2-2c-0.8-0.5-1.2-1.7-1.7-2.6
			c-0.2-0.3-0.3-0.8-0.7-0.9c-1.8-0.7-3.2-2-5.2-2.3c-0.7-0.1-1.4-0.5-2.1-0.5c-0.6,0-1.2-0.3-1.3-0.8c-0.3-1.3-1.3-1.4-2.2-1.4
			c-1.3,0-2.6-0.1-3.8,0.2c-0.3,0.1-0.5,0.1-0.8,0.2c-1.3,0.7-2.6,4.1-2.1,5.5c0.4,1.2,1,1.5,2.2,1.1c0.8-0.3,1.6-0.6,2.4,0.1
			c-1.3,0.7-3.1,0.6-4.1,1.9c-0.6,0.4-1,0.8-1.4,1.4v0c-0.3,0.2-0.6,0.5-0.8,0.8c-0.1,0.1-0.2,0.2-0.3,0.3
			C223.8,76.1,223.6,76.1,223.4,75.9z"/>
		<path class="st35" d="M223.4,75.9c0.2,0,0.4,0,0.5,0c-1.1,1.9-1.4,4-1.4,6.2c0,1.1,1,2,0.8,3.1c-0.9-1.7-1.7-3.5-1.1-5.6
			c0.1-0.4-0.1-0.5-0.5-0.7c-1.6-0.7-3-0.2-4.2,0.6c-1.3,0.9-2.5,2-4.2,2.3c-0.6,0.1-0.7,0.5-0.7,1c0,0.6-0.1,1-0.8,1
			c-0.1-1.1,0.1-2.1,0.7-3.1c0.3-0.5,0.5-0.6,1.1-0.7c0.8-0.1,1.3-0.9,2.2-1.1c1.2-0.2,2.1-1.4,3.5-1c0.3,0.1,0.3-0.2,0.4-0.4
			c0.2-0.5,0.7-0.6,1-0.4C222.6,78.3,222.7,76.6,223.4,75.9z"/>
		<path class="st33" d="M239.1,87.7c0.9-1.3,1.7-2.5,2.3-3.9C240.9,85.3,242.2,87.6,239.1,87.7z"/>
		<path class="st15" d="M235.8,90.2c-0.4,0.1-0.7,0.2-1.1,0.3c0.5-0.6,1.1-1.1,1.9-1.1l0,0C236.8,90.1,236.1,90,235.8,90.2z"/>
		<path class="st15" d="M225.6,88.8c-0.6-0.4-1.2-0.8-1.4-1.6C224.8,87.6,225.5,88,225.6,88.8z"/>
		<path class="st35" d="M225.1,74.8c0.2-0.8,0.6-1.2,1.4-1.4C226.1,74,225.6,74.5,225.1,74.8z"/>
		<path class="st15" d="M224.2,87.2c-0.4-0.2-0.8-0.6-0.8-1.1C223.8,86.3,224.2,86.6,224.2,87.2z"/>
		<path class="st35" d="M224.2,75.6c0-0.5,0.3-0.8,0.8-0.8C224.9,75.2,224.6,75.5,224.2,75.6z"/>
		<path class="st37" d="M235.8,90.2c0.3-0.3,0.5-0.5,0.8-0.8c1.2,0.2,1.9,0.9,1.5,2.2c-0.2,0.8,0.4,1.5,0.2,2.4
			c-0.2,0.8,0.1,1.7-1.1,1.9c-0.1,0-0.3,0.4-0.3,0.6c0.3,1.3-0.9,1.4-1.6,2c-1.9,1.7-4,1.4-6.1,0.8c-2.4-0.6-5-0.9-7.1-2
			c-2.5-1.3-4.8-3-6.4-5.5c-0.7-1.1-1.4-2.2-2.1-3.4c-0.9-1.4,0-2.9-0.1-4.4c0-0.1,0.1-0.2,0.2-0.2c1.5,0.3,2-1.4,3.2-1.6
			c1.1-0.2,1.7-1.2,2.6-1.8c1.2-0.8,1.9-0.6,2.2,0.9c0,0.2,0,0.5,0,0.7c-1.3-0.6-2.4,0.3-3.5,0.8c-0.7,0.3-0.4,1.2-0.3,1.8
			c0.1,0.7,0.1,1.1-0.5,1.7c-0.8,0.9-0.1,1.8,0.3,2.6c0.3,0.5,0.6,1.1,1.1,1.4c1.6,1,2.6,2.6,4.9,2.9c2.5,0.4,5.1,0.9,7.4,2.1
			c1.3,0.6,1.9,0.3,2.7-1.1c0.3-0.5,0.8-0.9,1.3-0.9c1,0,1.3-0.7,1.5-1.3C236.9,91.2,236.6,90.5,235.8,90.2z"/>
		<path class="st37" d="M230.5,71.5c-0.9,0-1.7,0-2.5,0.4c-1.4,0.6-2.1,0.3-2.5-1.2c-0.4-1.3-0.9-2.7,0.7-3.8
			c0.5-0.3,0.1-1.2,0.6-1.7c0.6-0.6,1.2-1.1,2.2-1.1c1.7,0,3.4-0.3,5.1,0c0.7,0.1,1.1,0.3,1,1.1c-0.1,0.9,0.5,1,1.1,1
			c1.9-0.1,3.4,0.9,5.2,1.4c0.8,0.2,1.6,1.2,2.7,1.5c0.7,0.2,0.4,1.4,1,1.8c0.9,0.6,0.8,2.1,2.1,2.3c0.3,0,0.5,0.9,0.1,1.2
			c-1.3,0.8-1.1,2.2-1.4,3.4c-0.1,0.4-0.1,0.8-0.6,0.9c-0.4,0.1-0.5,0.5-0.5,0.9c0.1,1.2-0.9,1.3-1.6,1.5c-0.7,0.2-1.4-0.3-1.7-1.1
			c-0.3-0.8-0.6-1.5-0.6-2.4c0.1-0.1,0.3-0.1,0.4,0c0.5,0.5,1.2,1,1.8,0.3c0.6-0.6,1-1.4,0.6-2.4c-0.1-0.2-0.2-0.4-0.2-0.6
			c-0.1-1.3-0.3-2.6-1.4-3.4c-1.6-1.2-3.4-2.2-5.4-2.5c-1.3-0.2-2.5-0.8-3.8-0.9c-1.3-0.2-2.5-0.2-3.8-0.2c-1.1,0-1.4,0.8-1.6,1.6
			c-0.2,0.8,0.6,1.4,1.5,1.1c1.4-0.4,2.8-0.6,4.2-0.3c0.7,0.1,1.5,0.2,1.5,1.2C233.3,71.6,231.9,70.8,230.5,71.5
			C230.5,71.5,230.5,71.5,230.5,71.5z"/>
		<path class="st38" d="M234.7,71.5c-1.4-1.3-3.1-0.8-4.7-0.7c-0.4,0-0.8,0.3-1.2,0.4c-0.5,0.1-1.1,0.6-1.4-0.2
			c-0.3-0.7-1-1.2-0.4-2.2c0.7-1.1,1.4-1.5,2.7-1.4c1,0.1,2.1-0.5,3.1,0.4c0.1,0.1,0.3,0.2,0.4,0.2c1.1-0.4,1.9,0.5,2.7,0.5
			c2.4,0.1,4.2,1.5,6.2,2.4c0.9,0.4,1.4,1.3,1.5,2.2c0.1,1.5,1.3,2.7,0.6,4.4c-0.4,0.9-0.8,1.3-1.6,1.5c-1,0.2-1.1-0.8-1.5-1.3
			c-0.9-1-1.2-2.4-2.2-3.4C237.6,72.9,235.9,72.5,234.7,71.5z"/>
	</g>
</g>
<g id="Text">
	<rect x="458" y="2.1" class="st46" width="98.3" height="29.7"/>
	<text transform="matrix(1 0 0 1 6.5021 159.129)" class="st47 st48">25 minutes work </text>
	<text transform="matrix(1 0 0 1 6.5021 173.5289)" class="st47 st48">cycle button</text>
	<rect x="458" y="56.6" class="st46" width="98.3" height="29.7"/>
	<text transform="matrix(1 0 0 1 458.0001 15.95)" class="st47 st48">45 minutes work </text>
	<text transform="matrix(1 0 0 1 458.0001 30.35)" class="st47 st48">cycle button</text>
	<rect x="-1" y="209.5" class="st46" width="98.3" height="29.7"/>
	<text transform="matrix(1 0 0 1 6.0002 215.5893)" class="st47 st48">60 minutes work </text>
	<text transform="matrix(1 0 0 1 6.0002 229.9893)" class="st47 st48">cycle button</text>
	<rect x="-1" y="161.7" class="st46" width="98.3" height="29.7"/>
	<text transform="matrix(1 0 0 1 457.9999 68.7234)" class="st47 st48">5 minutes work</text>
	<text transform="matrix(1 0 0 1 457.9999 83.1234)" class="st47 st48">cycle button</text>
</g>
<line class="st49" x1="306.9" y1="61.1" x2="334" y2="15.9"/>
<line class="st49" x1="334" y1="15.9" x2="456" y2="15.9"/>
<line class="st49" x1="323.3" y1="146.4" x2="367" y2="72.5"/>
<line class="st49" x1="367" y1="72.5" x2="456" y2="72.5"/>
<line class="st49" x1="230.8" y1="173.8" x2="203.9" y2="219"/>
<line class="st49" x1="203.9" y1="219" x2="81.9" y2="219.2"/>
<line class="st49" x1="214.3" y1="88.5" x2="170.8" y2="162.5"/>
<line class="st49" x1="170.8" y1="162.5" x2="81.8" y2="162.7"/>
</svg>
